<?xml version="1.0" encoding="UTF-8" standalone="no"?><svg xmlns="http://www.w3.org/2000/svg" xmlns:xlink="http://www.w3.org/1999/xlink" contentStyleType="text/css" height="618px" preserveAspectRatio="none" style="width:413px;height:618px;background:#FFFFFF;" version="1.1" viewBox="0 0 413 618" width="413px" zoomAndPan="magnify"><defs/><g><!--MD5=[cc10542696c7c089554438e0321fd1fc]
class abc.ABC--><g id="elem_abc.ABC"><rect codeLine="2" fill="#F1F1F1" height="48" id="abc.ABC" rx="2.5" ry="2.5" style="stroke:#181818;stroke-width:0.5;" width="88" x="37" y="547.5"/><ellipse cx="52" cy="563.5" fill="#ADD1B2" rx="11" ry="11" style="stroke:#181818;stroke-width:1.0;"/><path d="M54.4731,569.6431 Q53.8921,569.9419 53.2529,570.0913 Q52.6138,570.2407 51.9082,570.2407 Q49.4014,570.2407 48.0815,568.5889 Q46.7617,566.937 46.7617,563.8159 Q46.7617,560.6865 48.0815,559.0347 Q49.4014,557.3828 51.9082,557.3828 Q52.6138,557.3828 53.2612,557.5322 Q53.9087,557.6816 54.4731,557.9805 L54.4731,560.7031 Q53.8423,560.1221 53.2488,559.8523 Q52.6553,559.5825 52.0244,559.5825 Q50.6797,559.5825 49.9949,560.6492 Q49.3101,561.7158 49.3101,563.8159 Q49.3101,565.9077 49.9949,566.9744 Q50.6797,568.041 52.0244,568.041 Q52.6553,568.041 53.2488,567.7712 Q53.8423,567.5015 54.4731,566.9204 Z " fill="#000000"/><text fill="#000000" font-family="sans-serif" font-size="14" lengthAdjust="spacing" textLength="56" x="66" y="568.791">abc.ABC</text><line style="stroke:#181818;stroke-width:0.5;" x1="38" x2="124" y1="579.5" y2="579.5"/><line style="stroke:#181818;stroke-width:0.5;" x1="38" x2="124" y1="587.5" y2="587.5"/></g><!--MD5=[bd646357d1e910eda9d132ebf6d929cc]
class deeprank_gnn.models.contact.Contact--><g id="elem_deeprank_gnn.models.contact.Contact"><rect codeLine="4" fill="#F1F1F1" height="48" id="deeprank_gnn.models.contact.Contact" rx="2.5" ry="2.5" style="stroke:#181818;stroke-width:0.5;" width="296" x="34" y="422"/><ellipse cx="49" cy="438" fill="#ADD1B2" rx="11" ry="11" style="stroke:#181818;stroke-width:1.0;"/><path d="M51.4731,444.1431 Q50.8921,444.4419 50.2529,444.5913 Q49.6138,444.7407 48.9082,444.7407 Q46.4014,444.7407 45.0815,443.0889 Q43.7617,441.437 43.7617,438.3159 Q43.7617,435.1865 45.0815,433.5347 Q46.4014,431.8828 48.9082,431.8828 Q49.6138,431.8828 50.2612,432.0322 Q50.9087,432.1816 51.4731,432.4805 L51.4731,435.2031 Q50.8423,434.6221 50.2488,434.3523 Q49.6553,434.0825 49.0244,434.0825 Q47.6797,434.0825 46.9949,435.1492 Q46.3101,436.2158 46.3101,438.3159 Q46.3101,440.4077 46.9949,441.4744 Q47.6797,442.541 49.0244,442.541 Q49.6553,442.541 50.2488,442.2712 Q50.8423,442.0015 51.4731,441.4204 Z " fill="#000000"/><text fill="#000000" font-family="sans-serif" font-size="14" lengthAdjust="spacing" textLength="264" x="63" y="443.291">deeprank_gnn.models.contact.Contact</text><line style="stroke:#181818;stroke-width:0.5;" x1="35" x2="329" y1="454" y2="454"/><line style="stroke:#181818;stroke-width:0.5;" x1="35" x2="329" y1="462" y2="462"/></g><!--MD5=[975e3127275305575ae9411132f52607]
class deeprank_gnn.models.contact.ResidueContact--><g id="elem_deeprank_gnn.models.contact.ResidueContact"><rect codeLine="6" fill="#F1F1F1" height="80.9766" id="deeprank_gnn.models.contact.ResidueContact" rx="2.5" ry="2.5" style="stroke:#181818;stroke-width:0.5;" width="350" x="7" y="280"/><ellipse cx="22" cy="296" fill="#ADD1B2" rx="11" ry="11" style="stroke:#181818;stroke-width:1.0;"/><path d="M24.4731,302.1431 Q23.8921,302.4419 23.2529,302.5913 Q22.6138,302.7407 21.9082,302.7407 Q19.4014,302.7407 18.0815,301.0889 Q16.7617,299.437 16.7617,296.3159 Q16.7617,293.1865 18.0815,291.5347 Q19.4014,289.8828 21.9082,289.8828 Q22.6138,289.8828 23.2612,290.0322 Q23.9087,290.1816 24.4731,290.4805 L24.4731,293.2031 Q23.8423,292.6221 23.2488,292.3523 Q22.6553,292.0825 22.0244,292.0825 Q20.6797,292.0825 19.9949,293.1492 Q19.3101,294.2158 19.3101,296.3159 Q19.3101,298.4077 19.9949,299.4744 Q20.6797,300.541 22.0244,300.541 Q22.6553,300.541 23.2488,300.2712 Q23.8423,300.0015 24.4731,299.4204 Z " fill="#000000"/><text fill="#000000" font-family="sans-serif" font-size="14" lengthAdjust="spacing" textLength="318" x="36" y="301.291">deeprank_gnn.models.contact.ResidueContact</text><line style="stroke:#181818;stroke-width:0.5;" x1="8" x2="356" y1="312" y2="312"/><text fill="#000000" font-family="sans-serif" font-size="14" lengthAdjust="spacing" textLength="60" x="13" y="329.5352">residue1</text><text fill="#000000" font-family="sans-serif" font-size="14" lengthAdjust="spacing" textLength="60" x="13" y="346.0234">residue2</text><line style="stroke:#181818;stroke-width:0.5;" x1="8" x2="356" y1="352.9766" y2="352.9766"/></g><!--MD5=[33157d056f101eb11c7c50e1ff919bfe]
class deeprank_gnn.models.pair.Pair--><g id="elem_deeprank_gnn.models.pair.Pair"><rect codeLine="10" fill="#F1F1F1" height="80.9766" id="deeprank_gnn.models.pair.Pair" rx="2.5" ry="2.5" style="stroke:#181818;stroke-width:0.5;" width="246" x="160" y="531"/><ellipse cx="175" cy="547" fill="#ADD1B2" rx="11" ry="11" style="stroke:#181818;stroke-width:1.0;"/><path d="M177.4731,553.1431 Q176.8921,553.4419 176.2529,553.5913 Q175.6138,553.7407 174.9082,553.7407 Q172.4014,553.7407 171.0815,552.0889 Q169.7617,550.437 169.7617,547.3159 Q169.7617,544.1865 171.0815,542.5347 Q172.4014,540.8828 174.9082,540.8828 Q175.6138,540.8828 176.2612,541.0322 Q176.9087,541.1816 177.4731,541.4805 L177.4731,544.2031 Q176.8423,543.6221 176.2488,543.3523 Q175.6553,543.0825 175.0244,543.0825 Q173.6797,543.0825 172.9949,544.1492 Q172.3101,545.2158 172.3101,547.3159 Q172.3101,549.4077 172.9949,550.4744 Q173.6797,551.541 175.0244,551.541 Q175.6553,551.541 176.2488,551.2712 Q176.8423,551.0015 177.4731,550.4204 Z " fill="#000000"/><text fill="#000000" font-family="sans-serif" font-size="14" lengthAdjust="spacing" textLength="214" x="189" y="552.291">deeprank_gnn.models.pair.Pair</text><line style="stroke:#181818;stroke-width:0.5;" x1="161" x2="405" y1="563" y2="563"/><text fill="#000000" font-family="sans-serif" font-size="14" lengthAdjust="spacing" textLength="39" x="166" y="580.5352">item1</text><text fill="#000000" font-family="sans-serif" font-size="14" lengthAdjust="spacing" textLength="39" x="166" y="597.0234">item2</text><line style="stroke:#181818;stroke-width:0.5;" x1="161" x2="405" y1="603.9766" y2="603.9766"/></g><!--MD5=[99bf234703377e72aa37ae7698933364]
class deeprank_gnn.models.structure.Residue--><g id="elem_deeprank_gnn.models.structure.Residue"><rect codeLine="14" fill="#F1F1F1" height="196.3945" id="deeprank_gnn.models.structure.Residue" rx="2.5" ry="2.5" style="stroke:#181818;stroke-width:0.5;" width="309" x="27.5" y="7"/><ellipse cx="42.5" cy="23" fill="#ADD1B2" rx="11" ry="11" style="stroke:#181818;stroke-width:1.0;"/><path d="M44.9731,29.1431 Q44.3921,29.4419 43.7529,29.5913 Q43.1138,29.7407 42.4082,29.7407 Q39.9014,29.7407 38.5815,28.0889 Q37.2617,26.437 37.2617,23.3159 Q37.2617,20.1865 38.5815,18.5347 Q39.9014,16.8828 42.4082,16.8828 Q43.1138,16.8828 43.7612,17.0322 Q44.4087,17.1816 44.9731,17.4805 L44.9731,20.2031 Q44.3423,19.6221 43.7488,19.3523 Q43.1553,19.0825 42.5244,19.0825 Q41.1797,19.0825 40.4949,20.1492 Q39.8101,21.2158 39.8101,23.3159 Q39.8101,25.4077 40.4949,26.4744 Q41.1797,27.541 42.5244,27.541 Q43.1553,27.541 43.7488,27.2712 Q44.3423,27.0015 44.9731,26.4204 Z " fill="#000000"/><text fill="#000000" font-family="sans-serif" font-size="14" lengthAdjust="spacing" textLength="277" x="56.5" y="28.291">deeprank_gnn.models.structure.Residue</text><line style="stroke:#181818;stroke-width:0.5;" x1="28.5" x2="335.5" y1="39" y2="39"/><text fill="#000000" font-family="sans-serif" font-size="14" lengthAdjust="spacing" textLength="78" x="33.5" y="56.5352">amino_acid</text><text fill="#000000" font-family="sans-serif" font-size="14" lengthAdjust="spacing" textLength="42" x="33.5" y="73.0234">atoms</text><text fill="#000000" font-family="sans-serif" font-size="14" lengthAdjust="spacing" textLength="37" x="33.5" y="89.5117">chain</text><text fill="#000000" font-family="sans-serif" font-size="14" lengthAdjust="spacing" textLength="101" x="33.5" y="106">insertion_code</text><text fill="#000000" font-family="sans-serif" font-size="14" lengthAdjust="spacing" textLength="54" x="33.5" y="122.4883">number</text><text fill="#000000" font-family="sans-serif" font-size="14" lengthAdjust="spacing" textLength="101" x="33.5" y="138.9766">number_string</text><text fill="#000000" font-family="sans-serif" font-size="14" lengthAdjust="spacing" textLength="56" x="33.5" y="155.4648">position</text><line style="stroke:#181818;stroke-width:0.5;" x1="28.5" x2="335.5" y1="162.418" y2="162.418"/><text fill="#000000" font-family="sans-serif" font-size="14" lengthAdjust="spacing" textLength="113" x="33.5" y="179.9531">add_atom(atom)</text><text fill="#000000" font-family="sans-serif" font-size="14" lengthAdjust="spacing" textLength="166" x="33.5" y="196.4414">get_pssm() -&gt; PssmRow</text></g><!--MD5=[6ddd8e9b358dcee6a3e9f0bd0eb741ee]
link deeprank_gnn.models.contact.Contact to abc.ABC--><g id="link_deeprank_gnn.models.contact.Contact_abc.ABC"><path codeLine="25" d="M163,470.23 C148.82,487.57 129.13,511.65 112.6,531.86 " fill="none" id="deeprank_gnn.models.contact.Contact-to-abc.ABC" style="stroke:#181818;stroke-width:1.0;"/><polygon fill="none" points="117.99,536.32,99.91,547.37,107.15,527.46,117.99,536.32" style="stroke:#181818;stroke-width:1.0;"/></g><!--MD5=[0600daae467c47a6d2833bcc335051cb]
link deeprank_gnn.models.contact.Contact to deeprank_gnn.models.pair.Pair--><g id="link_deeprank_gnn.models.contact.Contact_deeprank_gnn.models.pair.Pair"><path codeLine="26" d="M201,470.23 C211.45,483.02 224.91,499.47 237.89,515.34 " fill="none" id="deeprank_gnn.models.contact.Contact-to-deeprank_gnn.models.pair.Pair" style="stroke:#181818;stroke-width:1.0;"/><polygon fill="none" points="243.34,510.94,250.58,530.86,232.5,519.81,243.34,510.94" style="stroke:#181818;stroke-width:1.0;"/></g><!--MD5=[899d80a00fe7cab130ef1737d51db39b]
link deeprank_gnn.models.contact.ResidueContact to deeprank_gnn.models.contact.Contact--><g id="link_deeprank_gnn.models.contact.ResidueContact_deeprank_gnn.models.contact.Contact"><path codeLine="27" d="M182,361.26 C182,374.09 182,388.37 182,401.46 " fill="none" id="deeprank_gnn.models.contact.ResidueContact-to-deeprank_gnn.models.contact.Contact" style="stroke:#181818;stroke-width:1.0;"/><polygon fill="none" points="189,401.88,182,421.88,175,401.88,189,401.88" style="stroke:#181818;stroke-width:1.0;"/></g><!--MD5=[3b0a75070cb3a2abb8f3b26e830eb809]
link deeprank_gnn.models.structure.Residue to deeprank_gnn.models.contact.ResidueContact--><g id="link_deeprank_gnn.models.structure.Residue_deeprank_gnn.models.contact.ResidueContact"><path codeLine="28" d="M126.37,203.33 C123.01,218.88 122.8,234.85 128,250 C130.2,256.43 133.27,262.72 136.84,268.73 " fill="none" id="deeprank_gnn.models.structure.Residue-to-deeprank_gnn.models.contact.ResidueContact" style="stroke:#181818;stroke-width:1.0;"/><polygon fill="#181818" points="144.21,279.91,144.243,272.699,137.5993,269.8951,137.5664,277.1061,144.21,279.91" style="stroke:#181818;stroke-width:1.0;"/><text fill="#000000" font-family="sans-serif" font-size="13" lengthAdjust="spacing" textLength="61" x="129" y="246.5684">_residue1</text></g><!--MD5=[3b0a75070cb3a2abb8f3b26e830eb809]
link deeprank_gnn.models.structure.Residue to deeprank_gnn.models.contact.ResidueContact--><g id="link_deeprank_gnn.models.structure.Residue_deeprank_gnn.models.contact.ResidueContact"><path codeLine="29" d="M195.62,203.22 C196.42,218.86 196.4,234.88 195,250 C194.49,255.5 193.76,261.21 192.9,266.9 " fill="none" id="deeprank_gnn.models.structure.Residue-to-deeprank_gnn.models.contact.ResidueContact-1" style="stroke:#181818;stroke-width:1.0;"/><polygon fill="#181818" points="190.7,279.98,195.6396,274.7264,192.6899,268.1461,187.7503,273.3998,190.7,279.98" style="stroke:#181818;stroke-width:1.0;"/><text fill="#000000" font-family="sans-serif" font-size="13" lengthAdjust="spacing" textLength="61" x="196" y="246.5684">_residue2</text></g><!--MD5=[07e98a5631eb67c96cac48140effe20b]
@startuml deeprank_gnn.models.contact.ResidueContact
set namespaceSeparator none
class "abc.ABC" as abc.ABC {
}
class "deeprank_gnn.models.contact.Contact" as deeprank_gnn.models.contact.Contact {
}
class "deeprank_gnn.models.contact.ResidueContact" as deeprank_gnn.models.contact.ResidueContact {
  residue1
  residue2
}
class "deeprank_gnn.models.pair.Pair" as deeprank_gnn.models.pair.Pair {
  item1
  item2
}
class "deeprank_gnn.models.structure.Residue" as deeprank_gnn.models.structure.Residue {
  amino_acid
  atoms
  chain
  insertion_code
  number
  number_string
  position
  add_atom(atom)
  get_pssm() -> PssmRow
}
deeprank_gnn.models.contact.Contact - -|> abc.ABC
deeprank_gnn.models.contact.Contact - -|> deeprank_gnn.models.pair.Pair
deeprank_gnn.models.contact.ResidueContact - -|> deeprank_gnn.models.contact.Contact
deeprank_gnn.models.structure.Residue - -* deeprank_gnn.models.contact.ResidueContact : _residue1
deeprank_gnn.models.structure.Residue - -* deeprank_gnn.models.contact.ResidueContact : _residue2
@enduml

PlantUML version 1.2022.5(Sat Apr 30 12:55:52 CEST 2022)
(GPL source distribution)
Java Runtime: OpenJDK Runtime Environment
JVM: OpenJDK 64-Bit Server VM
Default Encoding: UTF-8
Language: en
Country: NL
--></g></svg>