<?xml version="1.0" encoding="UTF-8" standalone="no"?><svg xmlns="http://www.w3.org/2000/svg" xmlns:xlink="http://www.w3.org/1999/xlink" contentStyleType="text/css" height="351px" preserveAspectRatio="none" style="width:725px;height:351px;background:#FFFFFF;" version="1.1" viewBox="0 0 725 351" width="725px" zoomAndPan="magnify"><defs/><g><!--MD5=[08530ff96198ff8e894b5ef19afe7b48]
class deeprank_gnn.models.pssm.PssmRow--><g id="elem_deeprank_gnn.models.pssm.PssmRow"><rect codeLine="2" fill="#F1F1F1" height="97.4648" id="deeprank_gnn.models.pssm.PssmRow" rx="2.5" ry="2.5" style="stroke:#181818;stroke-width:0.5;" width="358" x="7" y="23.5"/><ellipse cx="51.25" cy="39.5" fill="#ADD1B2" rx="11" ry="11" style="stroke:#181818;stroke-width:1.0;"/><path d="M53.7231,45.6431 Q53.1421,45.9419 52.5029,46.0913 Q51.8638,46.2407 51.1582,46.2407 Q48.6514,46.2407 47.3315,44.5889 Q46.0117,42.937 46.0117,39.8159 Q46.0117,36.6865 47.3315,35.0347 Q48.6514,33.3828 51.1582,33.3828 Q51.8638,33.3828 52.5112,33.5322 Q53.1587,33.6816 53.7231,33.9805 L53.7231,36.7031 Q53.0923,36.1221 52.4988,35.8523 Q51.9053,35.5825 51.2744,35.5825 Q49.9297,35.5825 49.2449,36.6492 Q48.5601,37.7158 48.5601,39.8159 Q48.5601,41.9077 49.2449,42.9744 Q49.9297,44.041 51.2744,44.041 Q51.9053,44.041 52.4988,43.7712 Q53.0923,43.5015 53.7231,42.9204 Z " fill="#000000"/><text fill="#000000" font-family="sans-serif" font-size="14" lengthAdjust="spacing" textLength="261" x="71.75" y="44.791">deeprank_gnn.models.pssm.PssmRow</text><line style="stroke:#181818;stroke-width:0.5;" x1="8" x2="364" y1="55.5" y2="55.5"/><text fill="#000000" font-family="sans-serif" font-size="14" lengthAdjust="spacing" textLength="95" x="13" y="73.0352">conservations</text><text fill="#000000" font-family="sans-serif" font-size="14" lengthAdjust="spacing" textLength="140" x="13" y="89.5234">information_content</text><line style="stroke:#181818;stroke-width:0.5;" x1="8" x2="364" y1="96.4766" y2="96.4766"/><text fill="#000000" font-family="sans-serif" font-size="14" lengthAdjust="spacing" textLength="346" x="13" y="114.0117">get_conservation(amino_acid: AminoAcid) -&gt; float</text></g><!--MD5=[8fcfa4884960d137f1695c21a9537198]
class deeprank_gnn.models.structure.Chain--><g id="elem_deeprank_gnn.models.structure.Chain"><rect codeLine="7" fill="#F1F1F1" height="130.4414" id="deeprank_gnn.models.structure.Chain" rx="2.5" ry="2.5" style="stroke:#181818;stroke-width:0.5;" width="295" x="224.5" y="214"/><ellipse cx="239.5" cy="230" fill="#ADD1B2" rx="11" ry="11" style="stroke:#181818;stroke-width:1.0;"/><path d="M241.9731,236.1431 Q241.3921,236.4419 240.7529,236.5913 Q240.1138,236.7407 239.4082,236.7407 Q236.9014,236.7407 235.5815,235.0889 Q234.2617,233.437 234.2617,230.3159 Q234.2617,227.1865 235.5815,225.5347 Q236.9014,223.8828 239.4082,223.8828 Q240.1138,223.8828 240.7612,224.0322 Q241.4087,224.1816 241.9731,224.4805 L241.9731,227.2031 Q241.3423,226.6221 240.7488,226.3523 Q240.1553,226.0825 239.5244,226.0825 Q238.1797,226.0825 237.4949,227.1492 Q236.8101,228.2158 236.8101,230.3159 Q236.8101,232.4077 237.4949,233.4744 Q238.1797,234.541 239.5244,234.541 Q240.1553,234.541 240.7488,234.2712 Q241.3423,234.0015 241.9731,233.4204 Z " fill="#000000"/><text fill="#000000" font-family="sans-serif" font-size="14" lengthAdjust="spacing" textLength="263" x="253.5" y="235.291">deeprank_gnn.models.structure.Chain</text><line style="stroke:#181818;stroke-width:0.5;" x1="225.5" x2="518.5" y1="246" y2="246"/><text fill="#000000" font-family="sans-serif" font-size="14" lengthAdjust="spacing" textLength="13" x="230.5" y="263.5352">id</text><text fill="#000000" font-family="sans-serif" font-size="14" lengthAdjust="spacing" textLength="43" x="230.5" y="280.0234">model</text><text fill="#000000" font-family="sans-serif" font-size="14" lengthAdjust="spacing" textLength="36" x="230.5" y="296.5117">pssm</text><text fill="#000000" font-family="sans-serif" font-size="14" lengthAdjust="spacing" textLength="58" x="230.5" y="313">residues</text><line style="stroke:#181818;stroke-width:0.5;" x1="225.5" x2="518.5" y1="319.9531" y2="319.9531"/><text fill="#000000" font-family="sans-serif" font-size="14" lengthAdjust="spacing" textLength="145" x="230.5" y="337.4883">add_residue(residue)</text></g><!--MD5=[f5c6a3a638e52e912c8a8f1ee22ec67f]
class deeprank_gnn.models.structure.Structure--><g id="elem_deeprank_gnn.models.structure.Structure"><rect codeLine="14" fill="#F1F1F1" height="130.4414" id="deeprank_gnn.models.structure.Structure" rx="2.5" ry="2.5" style="stroke:#181818;stroke-width:0.5;" width="318" x="400" y="7"/><ellipse cx="415" cy="23" fill="#ADD1B2" rx="11" ry="11" style="stroke:#181818;stroke-width:1.0;"/><path d="M417.4731,29.1431 Q416.8921,29.4419 416.2529,29.5913 Q415.6138,29.7407 414.9082,29.7407 Q412.4014,29.7407 411.0815,28.0889 Q409.7617,26.437 409.7617,23.3159 Q409.7617,20.1865 411.0815,18.5347 Q412.4014,16.8828 414.9082,16.8828 Q415.6138,16.8828 416.2612,17.0322 Q416.9087,17.1816 417.4731,17.4805 L417.4731,20.2031 Q416.8423,19.6221 416.2488,19.3523 Q415.6553,19.0825 415.0244,19.0825 Q413.6797,19.0825 412.9949,20.1492 Q412.3101,21.2158 412.3101,23.3159 Q412.3101,25.4077 412.9949,26.4744 Q413.6797,27.541 415.0244,27.541 Q415.6553,27.541 416.2488,27.2712 Q416.8423,27.0015 417.4731,26.4204 Z " fill="#000000"/><text fill="#000000" font-family="sans-serif" font-size="14" lengthAdjust="spacing" textLength="286" x="429" y="28.291">deeprank_gnn.models.structure.Structure</text><line style="stroke:#181818;stroke-width:0.5;" x1="401" x2="717" y1="39" y2="39"/><text fill="#000000" font-family="sans-serif" font-size="14" lengthAdjust="spacing" textLength="44" x="406" y="56.5352">chains</text><text fill="#000000" font-family="sans-serif" font-size="14" lengthAdjust="spacing" textLength="13" x="406" y="73.0234">id</text><line style="stroke:#181818;stroke-width:0.5;" x1="401" x2="717" y1="79.9766" y2="79.9766"/><text fill="#000000" font-family="sans-serif" font-size="14" lengthAdjust="spacing" textLength="117" x="406" y="97.5117">add_chain(chain)</text><text fill="#000000" font-family="sans-serif" font-size="14" lengthAdjust="spacing" textLength="81" x="406" y="114">get_atoms()</text><text fill="#000000" font-family="sans-serif" font-size="14" lengthAdjust="spacing" textLength="159" x="406" y="130.4883">get_chain(chain_id: str)</text></g><!--MD5=[208ccbccd2eedb83c6781c56a72a370d]
link deeprank_gnn.models.pssm.PssmRow to deeprank_gnn.models.structure.Chain--><g id="link_deeprank_gnn.models.pssm.PssmRow_deeprank_gnn.models.structure.Chain"><path codeLine="21" d="M229.14,120.55 C251.6,145.3 279.58,176.14 304.8,203.94 " fill="none" id="deeprank_gnn.models.pssm.PssmRow-to-deeprank_gnn.models.structure.Chain" style="stroke:#181818;stroke-width:1.0;"/><polygon fill="#181818" points="313.6,213.63,312.5279,206.499,305.5332,204.7459,306.6052,211.8769,313.6,213.63" style="stroke:#181818;stroke-width:1.0;"/><text fill="#000000" font-family="sans-serif" font-size="13" lengthAdjust="spacing" textLength="41" x="286" y="180.5684">_pssm</text></g><!--MD5=[a2e6e9ab9d112505d1b4b57602162d22]
link deeprank_gnn.models.structure.Structure to deeprank_gnn.models.structure.Chain--><g id="link_deeprank_gnn.models.structure.Structure_deeprank_gnn.models.structure.Chain"><path codeLine="22" d="M500.6,137.02 C481.18,158.31 459.41,182.18 439.37,204.15 " fill="none" id="deeprank_gnn.models.structure.Structure-to-deeprank_gnn.models.structure.Chain" style="stroke:#181818;stroke-width:1.0;"/><polygon fill="#181818" points="430.6,213.76,437.5988,212.023,438.6872,204.8945,431.6884,206.6315,430.6,213.76" style="stroke:#181818;stroke-width:1.0;"/><text fill="#000000" font-family="sans-serif" font-size="13" lengthAdjust="spacing" textLength="46" x="473" y="180.5684">_model</text></g><!--MD5=[6a02840119b262313134842689c1be3e]
@startuml deeprank_gnn.models.structure.Chain
set namespaceSeparator none
class "deeprank_gnn.models.pssm.PssmRow" as deeprank_gnn.models.pssm.PssmRow {
  conservations
  information_content
  get_conservation(amino_acid: AminoAcid) -> float
}
class "deeprank_gnn.models.structure.Chain" as deeprank_gnn.models.structure.Chain {
  id
  model
  pssm
  residues
  add_residue(residue)
}
class "deeprank_gnn.models.structure.Structure" as deeprank_gnn.models.structure.Structure {
  chains
  id
  add_chain(chain)
  get_atoms()
  get_chain(chain_id: str)
}
deeprank_gnn.models.pssm.PssmRow - -* deeprank_gnn.models.structure.Chain : _pssm
deeprank_gnn.models.structure.Structure - -* deeprank_gnn.models.structure.Chain : _model
@enduml

PlantUML version 1.2022.5(Sat Apr 30 12:55:52 CEST 2022)
(GPL source distribution)
Java Runtime: OpenJDK Runtime Environment
JVM: OpenJDK 64-Bit Server VM
Default Encoding: UTF-8
Language: en
Country: NL
--></g></svg>