<?xml version="1.0" encoding="UTF-8" standalone="no"?><svg xmlns="http://www.w3.org/2000/svg" xmlns:xlink="http://www.w3.org/1999/xlink" contentStyleType="text/css" height="285px" preserveAspectRatio="none" style="width:938px;height:285px;background:#FFFFFF;" version="1.1" viewBox="0 0 938 285" width="938px" zoomAndPan="magnify"><defs/><g><!--MD5=[cc10542696c7c089554438e0321fd1fc]
class abc.ABC--><g id="elem_abc.ABC"><rect codeLine="2" fill="#F1F1F1" height="48" id="abc.ABC" rx="2.5" ry="2.5" style="stroke:#181818;stroke-width:0.5;" width="88" x="7" y="181.5"/><ellipse cx="22" cy="197.5" fill="#ADD1B2" rx="11" ry="11" style="stroke:#181818;stroke-width:1.0;"/><path d="M24.4731,203.6431 Q23.8921,203.9419 23.2529,204.0913 Q22.6138,204.2407 21.9082,204.2407 Q19.4014,204.2407 18.0815,202.5889 Q16.7617,200.937 16.7617,197.8159 Q16.7617,194.6865 18.0815,193.0347 Q19.4014,191.3828 21.9082,191.3828 Q22.6138,191.3828 23.2612,191.5322 Q23.9087,191.6816 24.4731,191.9805 L24.4731,194.7031 Q23.8423,194.1221 23.2488,193.8523 Q22.6553,193.5825 22.0244,193.5825 Q20.6797,193.5825 19.9949,194.6492 Q19.3101,195.7158 19.3101,197.8159 Q19.3101,199.9077 19.9949,200.9744 Q20.6797,202.041 22.0244,202.041 Q22.6553,202.041 23.2488,201.7712 Q23.8423,201.5015 24.4731,200.9204 Z " fill="#000000"/><text fill="#000000" font-family="sans-serif" font-size="14" lengthAdjust="spacing" textLength="56" x="36" y="202.791">abc.ABC</text><line style="stroke:#181818;stroke-width:0.5;" x1="8" x2="94" y1="213.5" y2="213.5"/><line style="stroke:#181818;stroke-width:0.5;" x1="8" x2="94" y1="221.5" y2="221.5"/></g><!--MD5=[bd646357d1e910eda9d132ebf6d929cc]
class deeprank_gnn.models.contact.Contact--><g id="elem_deeprank_gnn.models.contact.Contact"><rect codeLine="4" fill="#F1F1F1" height="48" id="deeprank_gnn.models.contact.Contact" rx="2.5" ry="2.5" style="stroke:#181818;stroke-width:0.5;" width="296" x="242" y="7"/><ellipse cx="257" cy="23" fill="#ADD1B2" rx="11" ry="11" style="stroke:#181818;stroke-width:1.0;"/><path d="M259.4731,29.1431 Q258.8921,29.4419 258.2529,29.5913 Q257.6138,29.7407 256.9082,29.7407 Q254.4014,29.7407 253.0815,28.0889 Q251.7617,26.437 251.7617,23.3159 Q251.7617,20.1865 253.0815,18.5347 Q254.4014,16.8828 256.9082,16.8828 Q257.6138,16.8828 258.2612,17.0322 Q258.9087,17.1816 259.4731,17.4805 L259.4731,20.2031 Q258.8423,19.6221 258.2488,19.3523 Q257.6553,19.0825 257.0244,19.0825 Q255.6797,19.0825 254.9949,20.1492 Q254.3101,21.2158 254.3101,23.3159 Q254.3101,25.4077 254.9949,26.4744 Q255.6797,27.541 257.0244,27.541 Q257.6553,27.541 258.2488,27.2712 Q258.8423,27.0015 259.4731,26.4204 Z " fill="#000000"/><text fill="#000000" font-family="sans-serif" font-size="14" lengthAdjust="spacing" textLength="264" x="271" y="28.291">deeprank_gnn.models.contact.Contact</text><line style="stroke:#181818;stroke-width:0.5;" x1="243" x2="537" y1="39" y2="39"/><line style="stroke:#181818;stroke-width:0.5;" x1="243" x2="537" y1="47" y2="47"/></g><!--MD5=[4f29b0f349f5f02d3d157d176a58c8f4]
class deeprank_gnn.models.graph.Edge--><g id="elem_deeprank_gnn.models.graph.Edge"><rect codeLine="6" fill="#F1F1F1" height="146.9297" id="deeprank_gnn.models.graph.Edge" rx="2.5" ry="2.5" style="stroke:#181818;stroke-width:0.5;" width="520" x="130" y="132"/><ellipse cx="267.75" cy="148" fill="#ADD1B2" rx="11" ry="11" style="stroke:#181818;stroke-width:1.0;"/><path d="M270.2231,154.1431 Q269.6421,154.4419 269.0029,154.5913 Q268.3638,154.7407 267.6582,154.7407 Q265.1514,154.7407 263.8315,153.0889 Q262.5117,151.437 262.5117,148.3159 Q262.5117,145.1865 263.8315,143.5347 Q265.1514,141.8828 267.6582,141.8828 Q268.3638,141.8828 269.0112,142.0322 Q269.6587,142.1816 270.2231,142.4805 L270.2231,145.2031 Q269.5923,144.6221 268.9988,144.3523 Q268.4053,144.0825 267.7744,144.0825 Q266.4297,144.0825 265.7449,145.1492 Q265.0601,146.2158 265.0601,148.3159 Q265.0601,150.4077 265.7449,151.4744 Q266.4297,152.541 267.7744,152.541 Q268.4053,152.541 268.9988,152.2712 Q269.5923,152.0015 270.2231,151.4204 Z " fill="#000000"/><text fill="#000000" font-family="sans-serif" font-size="14" lengthAdjust="spacing" textLength="236" x="288.25" y="153.291">deeprank_gnn.models.graph.Edge</text><line style="stroke:#181818;stroke-width:0.5;" x1="131" x2="649" y1="164" y2="164"/><text fill="#000000" font-family="sans-serif" font-size="14" lengthAdjust="spacing" textLength="93" x="136" y="181.5352">features : dict</text><text fill="#000000" font-family="sans-serif" font-size="14" lengthAdjust="spacing" textLength="13" x="136" y="198.0234">id</text><text fill="#000000" font-family="sans-serif" font-size="14" lengthAdjust="spacing" textLength="65" x="136" y="214.5117">position1</text><text fill="#000000" font-family="sans-serif" font-size="14" lengthAdjust="spacing" textLength="65" x="136" y="231">position2</text><line style="stroke:#181818;stroke-width:0.5;" x1="131" x2="649" y1="237.9531" y2="237.9531"/><text fill="#000000" font-family="sans-serif" font-size="14" lengthAdjust="spacing" textLength="508" x="136" y="255.4883">add_feature(feature_name: str, feature_function: Callable[[Contact], float])</text><text fill="#000000" font-family="sans-serif" font-size="14" lengthAdjust="spacing" textLength="125" x="136" y="271.9766">has_nan() -&gt; bool</text></g><!--MD5=[33157d056f101eb11c7c50e1ff919bfe]
class deeprank_gnn.models.pair.Pair--><g id="elem_deeprank_gnn.models.pair.Pair"><rect codeLine="14" fill="#F1F1F1" height="80.9766" id="deeprank_gnn.models.pair.Pair" rx="2.5" ry="2.5" style="stroke:#181818;stroke-width:0.5;" width="246" x="685" y="165"/><ellipse cx="700" cy="181" fill="#ADD1B2" rx="11" ry="11" style="stroke:#181818;stroke-width:1.0;"/><path d="M702.4731,187.1431 Q701.8921,187.4419 701.2529,187.5913 Q700.6138,187.7407 699.9082,187.7407 Q697.4014,187.7407 696.0815,186.0889 Q694.7617,184.437 694.7617,181.3159 Q694.7617,178.1865 696.0815,176.5347 Q697.4014,174.8828 699.9082,174.8828 Q700.6138,174.8828 701.2612,175.0322 Q701.9087,175.1816 702.4731,175.4805 L702.4731,178.2031 Q701.8423,177.6221 701.2488,177.3523 Q700.6553,177.0825 700.0244,177.0825 Q698.6797,177.0825 697.9949,178.1492 Q697.3101,179.2158 697.3101,181.3159 Q697.3101,183.4077 697.9949,184.4744 Q698.6797,185.541 700.0244,185.541 Q700.6553,185.541 701.2488,185.2712 Q701.8423,185.0015 702.4731,184.4204 Z " fill="#000000"/><text fill="#000000" font-family="sans-serif" font-size="14" lengthAdjust="spacing" textLength="214" x="714" y="186.291">deeprank_gnn.models.pair.Pair</text><line style="stroke:#181818;stroke-width:0.5;" x1="686" x2="930" y1="197" y2="197"/><text fill="#000000" font-family="sans-serif" font-size="14" lengthAdjust="spacing" textLength="39" x="691" y="214.5352">item1</text><text fill="#000000" font-family="sans-serif" font-size="14" lengthAdjust="spacing" textLength="39" x="691" y="231.0234">item2</text><line style="stroke:#181818;stroke-width:0.5;" x1="686" x2="930" y1="237.9766" y2="237.9766"/></g><!--MD5=[6ddd8e9b358dcee6a3e9f0bd0eb741ee]
link deeprank_gnn.models.contact.Contact to abc.ABC--><g id="link_deeprank_gnn.models.contact.Contact_abc.ABC"><path codeLine="18" d="M287.11,55.07 C231.86,70.76 164.51,95.43 112,132 C99.16,140.95 87.43,153.26 77.77,165.2 " fill="none" id="deeprank_gnn.models.contact.Contact-to-abc.ABC" style="stroke:#181818;stroke-width:1.0;"/><polygon fill="none" points="83.19,169.64,65.58,181.44,71.99,161.24,83.19,169.64" style="stroke:#181818;stroke-width:1.0;"/></g><!--MD5=[0600daae467c47a6d2833bcc335051cb]
link deeprank_gnn.models.contact.Contact to deeprank_gnn.models.pair.Pair--><g id="link_deeprank_gnn.models.contact.Contact_deeprank_gnn.models.pair.Pair"><path codeLine="19" d="M461.57,55.02 C518.09,73.86 598.56,102.2 667,132 C683.5,139.18 700.77,147.43 717.33,155.72 " fill="none" id="deeprank_gnn.models.contact.Contact-to-deeprank_gnn.models.pair.Pair" style="stroke:#181818;stroke-width:1.0;"/><polygon fill="none" points="720.66,149.56,735.31,164.87,714.32,162.04,720.66,149.56" style="stroke:#181818;stroke-width:1.0;"/></g><!--MD5=[778df9e3a0d1dbd0c664d0b491a695e5]
link deeprank_gnn.models.contact.Contact to deeprank_gnn.models.graph.Edge--><g id="link_deeprank_gnn.models.contact.Contact_deeprank_gnn.models.graph.Edge"><path codeLine="20" d="M390,55.26 C390,71.79 390,95.11 390,118.4 " fill="none" id="deeprank_gnn.models.contact.Contact-to-deeprank_gnn.models.graph.Edge" style="stroke:#181818;stroke-width:1.0;"/><polygon fill="#181818" points="390,131.68,394,125.68,390,119.68,386,125.68,390,131.68" style="stroke:#181818;stroke-width:1.0;"/><text fill="#000000" font-family="sans-serif" font-size="13" lengthAdjust="spacing" textLength="12" x="391" y="98.5684">id</text></g><!--MD5=[83edec7a11507dfc9c740367ed375ed1]
@startuml deeprank_gnn.models.graph.Edge
set namespaceSeparator none
class "abc.ABC" as abc.ABC {
}
class "deeprank_gnn.models.contact.Contact" as deeprank_gnn.models.contact.Contact {
}
class "deeprank_gnn.models.graph.Edge" as deeprank_gnn.models.graph.Edge {
  features : dict
  id
  position1
  position2
  add_feature(feature_name: str, feature_function: Callable[[Contact], float])
  has_nan() -> bool
}
class "deeprank_gnn.models.pair.Pair" as deeprank_gnn.models.pair.Pair {
  item1
  item2
}
deeprank_gnn.models.contact.Contact - -|> abc.ABC
deeprank_gnn.models.contact.Contact - -|> deeprank_gnn.models.pair.Pair
deeprank_gnn.models.contact.Contact - -* deeprank_gnn.models.graph.Edge : id
@enduml

PlantUML version 1.2022.5(Sat Apr 30 12:55:52 CEST 2022)
(GPL source distribution)
Java Runtime: OpenJDK Runtime Environment
JVM: OpenJDK 64-Bit Server VM
Default Encoding: UTF-8
Language: en
Country: NL
--></g></svg>