<?xml version="1.0" encoding="UTF-8" standalone="no"?><svg xmlns="http://www.w3.org/2000/svg" xmlns:xlink="http://www.w3.org/1999/xlink" contentStyleType="text/css" height="849px" preserveAspectRatio="none" style="width:830px;height:849px;background:#FFFFFF;" version="1.1" viewBox="0 0 830 849" width="830px" zoomAndPan="magnify"><defs/><g><!--MD5=[0e436a2419a20839b8edcae433acfcd8]
class deeprank_gnn.preprocess._PreProcess--><g id="elem_deeprank_gnn.preprocess._PreProcess"><rect codeLine="2" fill="#F1F1F1" height="130.4414" id="deeprank_gnn.preprocess._PreProcess" rx="2.5" ry="2.5" style="stroke:#181818;stroke-width:0.5;" width="296" x="385.5" y="181.5"/><ellipse cx="400.5" cy="197.5" fill="#ADD1B2" rx="11" ry="11" style="stroke:#181818;stroke-width:1.0;"/><path d="M402.9731,203.6431 Q402.3921,203.9419 401.7529,204.0913 Q401.1138,204.2407 400.4082,204.2407 Q397.9014,204.2407 396.5815,202.5889 Q395.2617,200.937 395.2617,197.8159 Q395.2617,194.6865 396.5815,193.0347 Q397.9014,191.3828 400.4082,191.3828 Q401.1138,191.3828 401.7612,191.5322 Q402.4087,191.6816 402.9731,191.9805 L402.9731,194.7031 Q402.3423,194.1221 401.7488,193.8523 Q401.1553,193.5825 400.5244,193.5825 Q399.1797,193.5825 398.4949,194.6492 Q397.8101,195.7158 397.8101,197.8159 Q397.8101,199.9077 398.4949,200.9744 Q399.1797,202.041 400.5244,202.041 Q401.1553,202.041 401.7488,201.7712 Q402.3423,201.5015 402.9731,200.9204 Z " fill="#000000"/><text fill="#000000" font-family="sans-serif" font-size="14" lengthAdjust="spacing" textLength="264" x="414.5" y="202.791">deeprank_gnn.preprocess._PreProcess</text><line style="stroke:#181818;stroke-width:0.5;" x1="386.5" x2="680.5" y1="213.5" y2="213.5"/><text fill="#000000" font-family="sans-serif" font-size="14" lengthAdjust="spacing" textLength="99" x="391.5" y="231.0352">daemon : bool</text><text fill="#000000" font-family="sans-serif" font-size="14" lengthAdjust="spacing" textLength="84" x="391.5" y="247.5234">output_path</text><line style="stroke:#181818;stroke-width:0.5;" x1="386.5" x2="680.5" y1="254.4766" y2="254.4766"/><text fill="#000000" font-family="sans-serif" font-size="14" lengthAdjust="spacing" textLength="141" x="391.5" y="272.0117">is_running() -&gt; bool</text><text fill="#000000" font-family="sans-serif" font-size="14" lengthAdjust="spacing" textLength="34" x="391.5" y="288.5">run()</text><text fill="#000000" font-family="sans-serif" font-size="14" lengthAdjust="spacing" textLength="40" x="391.5" y="304.9883">stop()</text></g><!--MD5=[ee43b0b1d978bedd958ed369e1e57d5c]
class multiprocessing.connection.Connection--><g id="elem_multiprocessing.connection.Connection"><rect codeLine="9" fill="#F1F1F1" height="48" id="multiprocessing.connection.Connection" rx="2.5" ry="2.5" style="stroke:#181818;stroke-width:0.5;" width="305" x="381" y="7"/><ellipse cx="396" cy="23" fill="#ADD1B2" rx="11" ry="11" style="stroke:#181818;stroke-width:1.0;"/><path d="M398.4731,29.1431 Q397.8921,29.4419 397.2529,29.5913 Q396.6138,29.7407 395.9082,29.7407 Q393.4014,29.7407 392.0815,28.0889 Q390.7617,26.437 390.7617,23.3159 Q390.7617,20.1865 392.0815,18.5347 Q393.4014,16.8828 395.9082,16.8828 Q396.6138,16.8828 397.2612,17.0322 Q397.9087,17.1816 398.4731,17.4805 L398.4731,20.2031 Q397.8423,19.6221 397.2488,19.3523 Q396.6553,19.0825 396.0244,19.0825 Q394.6797,19.0825 393.9949,20.1492 Q393.3101,21.2158 393.3101,23.3159 Q393.3101,25.4077 393.9949,26.4744 Q394.6797,27.541 396.0244,27.541 Q396.6553,27.541 397.2488,27.2712 Q397.8423,27.0015 398.4731,26.4204 Z " fill="#000000"/><text fill="#000000" font-family="sans-serif" font-size="14" lengthAdjust="spacing" textLength="273" x="410" y="28.291">multiprocessing.connection.Connection</text><line style="stroke:#181818;stroke-width:0.5;" x1="382" x2="685" y1="39" y2="39"/><line style="stroke:#181818;stroke-width:0.5;" x1="382" x2="685" y1="47" y2="47"/></g><!--MD5=[dcc59ee8b4ed38636c96590fef621356]
class multiprocessing.connection.PipeConnection--><g id="elem_multiprocessing.connection.PipeConnection"><rect codeLine="11" fill="#F1F1F1" height="48" id="multiprocessing.connection.PipeConnection" rx="2.5" ry="2.5" style="stroke:#181818;stroke-width:0.5;" width="334" x="11.5" y="7"/><ellipse cx="26.5" cy="23" fill="#ADD1B2" rx="11" ry="11" style="stroke:#181818;stroke-width:1.0;"/><path d="M28.9731,29.1431 Q28.3921,29.4419 27.7529,29.5913 Q27.1138,29.7407 26.4082,29.7407 Q23.9014,29.7407 22.5815,28.0889 Q21.2617,26.437 21.2617,23.3159 Q21.2617,20.1865 22.5815,18.5347 Q23.9014,16.8828 26.4082,16.8828 Q27.1138,16.8828 27.7612,17.0322 Q28.4087,17.1816 28.9731,17.4805 L28.9731,20.2031 Q28.3423,19.6221 27.7488,19.3523 Q27.1553,19.0825 26.5244,19.0825 Q25.1797,19.0825 24.4949,20.1492 Q23.8101,21.2158 23.8101,23.3159 Q23.8101,25.4077 24.4949,26.4744 Q25.1797,27.541 26.5244,27.541 Q27.1553,27.541 27.7488,27.2712 Q28.3423,27.0015 28.9731,26.4204 Z " fill="#000000"/><text fill="#000000" font-family="sans-serif" font-size="14" lengthAdjust="spacing" textLength="302" x="40.5" y="28.291">multiprocessing.connection.PipeConnection</text><line style="stroke:#181818;stroke-width:0.5;" x1="12.5" x2="344.5" y1="39" y2="39"/><line style="stroke:#181818;stroke-width:0.5;" x1="12.5" x2="344.5" y1="47" y2="47"/></g><!--MD5=[19e851eb6aed210b8ebc8d54103e0f53]
class multiprocessing.connection._ConnectionBase--><g id="elem_multiprocessing.connection._ConnectionBase"><rect codeLine="13" fill="#F1F1F1" height="229.3711" id="multiprocessing.connection._ConnectionBase" rx="2.5" ry="2.5" style="stroke:#181818;stroke-width:0.5;" width="343" x="7" y="132"/><ellipse cx="22" cy="148" fill="#ADD1B2" rx="11" ry="11" style="stroke:#181818;stroke-width:1.0;"/><path d="M24.4731,154.1431 Q23.8921,154.4419 23.2529,154.5913 Q22.6138,154.7407 21.9082,154.7407 Q19.4014,154.7407 18.0815,153.0889 Q16.7617,151.437 16.7617,148.3159 Q16.7617,145.1865 18.0815,143.5347 Q19.4014,141.8828 21.9082,141.8828 Q22.6138,141.8828 23.2612,142.0322 Q23.9087,142.1816 24.4731,142.4805 L24.4731,145.2031 Q23.8423,144.6221 23.2488,144.3523 Q22.6553,144.0825 22.0244,144.0825 Q20.6797,144.0825 19.9949,145.1492 Q19.3101,146.2158 19.3101,148.3159 Q19.3101,150.4077 19.9949,151.4744 Q20.6797,152.541 22.0244,152.541 Q22.6553,152.541 23.2488,152.2712 Q23.8423,152.0015 24.4731,151.4204 Z " fill="#000000"/><text fill="#000000" font-family="sans-serif" font-size="14" lengthAdjust="spacing" textLength="311" x="36" y="153.291">multiprocessing.connection._ConnectionBase</text><line style="stroke:#181818;stroke-width:0.5;" x1="8" x2="349" y1="164" y2="164"/><text fill="#000000" font-family="sans-serif" font-size="14" lengthAdjust="spacing" textLength="44" x="13" y="181.5352">closed</text><text fill="#000000" font-family="sans-serif" font-size="14" lengthAdjust="spacing" textLength="60" x="13" y="198.0234">readable</text><text fill="#000000" font-family="sans-serif" font-size="14" lengthAdjust="spacing" textLength="55" x="13" y="214.5117">writable</text><line style="stroke:#181818;stroke-width:0.5;" x1="8" x2="349" y1="221.4648" y2="221.4648"/><text fill="#000000" font-family="sans-serif" font-size="14" lengthAdjust="spacing" textLength="45" x="13" y="239">close()</text><text fill="#000000" font-family="sans-serif" font-size="14" lengthAdjust="spacing" textLength="49" x="13" y="255.4883">fileno()</text><text fill="#000000" font-family="sans-serif" font-size="14" lengthAdjust="spacing" textLength="89" x="13" y="271.9766">poll(timeout)</text><text fill="#000000" font-family="sans-serif" font-size="14" lengthAdjust="spacing" textLength="38" x="13" y="288.4648">recv()</text><text fill="#000000" font-family="sans-serif" font-size="14" lengthAdjust="spacing" textLength="155" x="13" y="304.9531">recv_bytes(maxlength)</text><text fill="#000000" font-family="sans-serif" font-size="14" lengthAdjust="spacing" textLength="185" x="13" y="321.4414">recv_bytes_into(buf, offset)</text><text fill="#000000" font-family="sans-serif" font-size="14" lengthAdjust="spacing" textLength="65" x="13" y="337.9297">send(obj)</text><text fill="#000000" font-family="sans-serif" font-size="14" lengthAdjust="spacing" textLength="191" x="13" y="354.418">send_bytes(buf, offset, size)</text></g><!--MD5=[7524518190409766ff4b8bbea75c3712]
class multiprocessing.context.Process--><g id="elem_multiprocessing.context.Process"><rect codeLine="26" fill="#F1F1F1" height="64.4883" id="multiprocessing.context.Process" rx="2.5" ry="2.5" style="stroke:#181818;stroke-width:0.5;" width="254" x="406.5" y="422"/><ellipse cx="421.5" cy="438" fill="#ADD1B2" rx="11" ry="11" style="stroke:#181818;stroke-width:1.0;"/><path d="M423.9731,444.1431 Q423.3921,444.4419 422.7529,444.5913 Q422.1138,444.7407 421.4082,444.7407 Q418.9014,444.7407 417.5815,443.0889 Q416.2617,441.437 416.2617,438.3159 Q416.2617,435.1865 417.5815,433.5347 Q418.9014,431.8828 421.4082,431.8828 Q422.1138,431.8828 422.7612,432.0322 Q423.4087,432.1816 423.9731,432.4805 L423.9731,435.2031 Q423.3423,434.6221 422.7488,434.3523 Q422.1553,434.0825 421.5244,434.0825 Q420.1797,434.0825 419.4949,435.1492 Q418.8101,436.2158 418.8101,438.3159 Q418.8101,440.4077 419.4949,441.4744 Q420.1797,442.541 421.5244,442.541 Q422.1553,442.541 422.7488,442.2712 Q423.3423,442.0015 423.9731,441.4204 Z " fill="#000000"/><text fill="#000000" font-family="sans-serif" font-size="14" lengthAdjust="spacing" textLength="222" x="435.5" y="443.291">multiprocessing.context.Process</text><line style="stroke:#181818;stroke-width:0.5;" x1="407.5" x2="659.5" y1="454" y2="454"/><text fill="#000000" font-family="sans-serif" font-size="14" lengthAdjust="spacing" textLength="99" x="412.5" y="471.5352">daemon : bool</text><line style="stroke:#181818;stroke-width:0.5;" x1="407.5" x2="659.5" y1="478.4883" y2="478.4883"/></g><!--MD5=[c0841fec551dcd7de27530212a9c38c3]
class multiprocessing.process.BaseProcess--><g id="elem_multiprocessing.process.BaseProcess"><rect codeLine="29" fill="#F1F1F1" height="295.3242" id="multiprocessing.process.BaseProcess" rx="2.5" ry="2.5" style="stroke:#181818;stroke-width:0.5;" width="286" x="390.5" y="547"/><ellipse cx="405.5" cy="563" fill="#ADD1B2" rx="11" ry="11" style="stroke:#181818;stroke-width:1.0;"/><path d="M407.9731,569.1431 Q407.3921,569.4419 406.7529,569.5913 Q406.1138,569.7407 405.4082,569.7407 Q402.9014,569.7407 401.5815,568.0889 Q400.2617,566.437 400.2617,563.3159 Q400.2617,560.1865 401.5815,558.5347 Q402.9014,556.8828 405.4082,556.8828 Q406.1138,556.8828 406.7612,557.0322 Q407.4087,557.1816 407.9731,557.4805 L407.9731,560.2031 Q407.3423,559.6221 406.7488,559.3523 Q406.1553,559.0825 405.5244,559.0825 Q404.1797,559.0825 403.4949,560.1492 Q402.8101,561.2158 402.8101,563.3159 Q402.8101,565.4077 403.4949,566.4744 Q404.1797,567.541 405.5244,567.541 Q406.1553,567.541 406.7488,567.2712 Q407.3423,567.0015 407.9731,566.4204 Z " fill="#000000"/><text fill="#000000" font-family="sans-serif" font-size="14" lengthAdjust="spacing" textLength="254" x="419.5" y="568.291">multiprocessing.process.BaseProcess</text><line style="stroke:#181818;stroke-width:0.5;" x1="391.5" x2="675.5" y1="579" y2="579"/><text fill="#000000" font-family="sans-serif" font-size="14" lengthAdjust="spacing" textLength="54" x="396.5" y="596.5352">authkey</text><text fill="#000000" font-family="sans-serif" font-size="14" lengthAdjust="spacing" textLength="56" x="396.5" y="613.0234">daemon</text><text fill="#000000" font-family="sans-serif" font-size="14" lengthAdjust="spacing" textLength="137" x="396.5" y="629.5117">daemon : NoneType</text><text fill="#000000" font-family="sans-serif" font-size="14" lengthAdjust="spacing" textLength="59" x="396.5" y="646">exitcode</text><text fill="#000000" font-family="sans-serif" font-size="14" lengthAdjust="spacing" textLength="35" x="396.5" y="662.4883">ident</text><text fill="#000000" font-family="sans-serif" font-size="14" lengthAdjust="spacing" textLength="38" x="396.5" y="678.9766">name</text><text fill="#000000" font-family="sans-serif" font-size="14" lengthAdjust="spacing" textLength="22" x="396.5" y="695.4648">pid</text><text fill="#000000" font-family="sans-serif" font-size="14" lengthAdjust="spacing" textLength="54" x="396.5" y="711.9531">sentinel</text><line style="stroke:#181818;stroke-width:0.5;" x1="391.5" x2="675.5" y1="718.9063" y2="718.9063"/><text fill="#000000" font-family="sans-serif" font-size="14" lengthAdjust="spacing" textLength="45" x="396.5" y="736.4414">close()</text><text fill="#000000" font-family="sans-serif" font-size="14" lengthAdjust="spacing" textLength="59" x="396.5" y="752.9297">is_alive()</text><text fill="#000000" font-family="sans-serif" font-size="14" lengthAdjust="spacing" textLength="89" x="396.5" y="769.418">join(timeout)</text><text fill="#000000" font-family="sans-serif" font-size="14" lengthAdjust="spacing" textLength="30" x="396.5" y="785.9063">kill()</text><text fill="#000000" font-family="sans-serif" font-size="14" lengthAdjust="spacing" textLength="34" x="396.5" y="802.3945">run()</text><text fill="#000000" font-family="sans-serif" font-size="14" lengthAdjust="spacing" textLength="41" x="396.5" y="818.8828">start()</text><text fill="#000000" font-family="sans-serif" font-size="14" lengthAdjust="spacing" textLength="76" x="396.5" y="835.3711">terminate()</text></g><!--MD5=[3ce091db1f9c5d3f89d7c84821c86212]
class typing.List--><g id="elem_typing.List"><rect codeLine="46" fill="#F1F1F1" height="48" id="typing.List" rx="2.5" ry="2.5" style="stroke:#181818;stroke-width:0.5;" width="102" x="721.5" y="7"/><ellipse cx="736.5" cy="23" fill="#ADD1B2" rx="11" ry="11" style="stroke:#181818;stroke-width:1.0;"/><path d="M738.9731,29.1431 Q738.3921,29.4419 737.7529,29.5913 Q737.1138,29.7407 736.4082,29.7407 Q733.9014,29.7407 732.5815,28.0889 Q731.2617,26.437 731.2617,23.3159 Q731.2617,20.1865 732.5815,18.5347 Q733.9014,16.8828 736.4082,16.8828 Q737.1138,16.8828 737.7612,17.0322 Q738.4087,17.1816 738.9731,17.4805 L738.9731,20.2031 Q738.3423,19.6221 737.7488,19.3523 Q737.1553,19.0825 736.5244,19.0825 Q735.1797,19.0825 734.4949,20.1492 Q733.8101,21.2158 733.8101,23.3159 Q733.8101,25.4077 734.4949,26.4744 Q735.1797,27.541 736.5244,27.541 Q737.1553,27.541 737.7488,27.2712 Q738.3423,27.0015 738.9731,26.4204 Z " fill="#000000"/><text fill="#000000" font-family="sans-serif" font-size="14" lengthAdjust="spacing" textLength="70" x="750.5" y="28.291">typing.List</text><line style="stroke:#181818;stroke-width:0.5;" x1="722.5" x2="822.5" y1="39" y2="39"/><line style="stroke:#181818;stroke-width:0.5;" x1="722.5" x2="822.5" y1="47" y2="47"/></g><!--MD5=[ba44ed99731b60746706351de7bafe5f]
link deeprank_gnn.preprocess._PreProcess to multiprocessing.context.Process--><g id="link_deeprank_gnn.preprocess._PreProcess_multiprocessing.context.Process"><path codeLine="48" d="M533.5,311.68 C533.5,340.67 533.5,374.45 533.5,401.72 " fill="none" id="deeprank_gnn.preprocess._PreProcess-to-multiprocessing.context.Process" style="stroke:#181818;stroke-width:1.0;"/><polygon fill="none" points="540.5,401.97,533.5,421.97,526.5,401.97,540.5,401.97" style="stroke:#181818;stroke-width:1.0;"/></g><!--MD5=[f3e83aa33f72a0eb2b7c16e388971ad6]
link multiprocessing.connection.Connection to multiprocessing.connection._ConnectionBase--><g id="link_multiprocessing.connection.Connection_multiprocessing.connection._ConnectionBase"><path codeLine="49" d="M495.17,55.05 C463.5,74.1 415.98,102.68 367.32,131.94 " fill="none" id="multiprocessing.connection.Connection-to-multiprocessing.connection._ConnectionBase" style="stroke:#181818;stroke-width:1.0;"/><polygon fill="none" points="370.83,138,350.08,142.31,363.61,126,370.83,138" style="stroke:#181818;stroke-width:1.0;"/></g><!--MD5=[c53e2b520b0f767dcd8cfa8d1febf3aa]
link multiprocessing.connection.PipeConnection to multiprocessing.connection._ConnectionBase--><g id="link_multiprocessing.connection.PipeConnection_multiprocessing.connection._ConnectionBase"><path codeLine="50" d="M178.5,55.25 C178.5,69.82 178.5,89.89 178.5,111.57 " fill="none" id="multiprocessing.connection.PipeConnection-to-multiprocessing.connection._ConnectionBase" style="stroke:#181818;stroke-width:1.0;"/><polygon fill="none" points="185.5,111.82,178.5,131.82,171.5,111.82,185.5,111.82" style="stroke:#181818;stroke-width:1.0;"/></g><!--MD5=[717a825c427579fdc5b81fe867f7a727]
link multiprocessing.context.Process to multiprocessing.process.BaseProcess--><g id="link_multiprocessing.context.Process_multiprocessing.process.BaseProcess"><path codeLine="51" d="M533.5,486.18 C533.5,497.66 533.5,511.59 533.5,526.75 " fill="none" id="multiprocessing.context.Process-to-multiprocessing.process.BaseProcess" style="stroke:#181818;stroke-width:1.0;"/><polygon fill="none" points="540.5,526.9,533.5,546.9,526.5,526.9,540.5,526.9" style="stroke:#181818;stroke-width:1.0;"/></g><!--MD5=[935ae34c0dd66b82965ae55597c84baf]
link multiprocessing.connection.Connection to deeprank_gnn.preprocess._PreProcess--><g id="link_multiprocessing.connection.Connection_deeprank_gnn.preprocess._PreProcess"><path codeLine="52" d="M513.33,55.21 C506.98,63.96 500.77,74.37 497.5,85 C489.24,111.86 492.65,141.78 499.98,168.45 " fill="none" id="multiprocessing.connection.Connection-to-deeprank_gnn.preprocess._PreProcess" style="stroke:#181818;stroke-width:1.0;"/><polygon fill="#181818" points="503.85,181.25,505.9449,174.3499,500.3813,169.7623,498.2864,176.6624,503.85,181.25" style="stroke:#181818;stroke-width:1.0;"/><text fill="#000000" font-family="sans-serif" font-size="13" lengthAdjust="spacing" textLength="56" x="498.5" y="98.5684">_receiver</text></g><!--MD5=[935ae34c0dd66b82965ae55597c84baf]
link multiprocessing.connection.Connection to deeprank_gnn.preprocess._PreProcess--><g id="link_multiprocessing.connection.Connection_deeprank_gnn.preprocess._PreProcess"><path codeLine="53" d="M547.7,55.15 C552.44,64.13 557.11,74.72 559.5,85 C565.78,112.06 563.39,142.03 558.07,168.67 " fill="none" id="multiprocessing.connection.Connection-to-deeprank_gnn.preprocess._PreProcess-1" style="stroke:#181818;stroke-width:1.0;"/><polygon fill="#181818" points="555.25,181.46,560.4492,176.4632,557.8364,169.742,552.6372,174.7389,555.25,181.46" style="stroke:#181818;stroke-width:1.0;"/><text fill="#000000" font-family="sans-serif" font-size="13" lengthAdjust="spacing" textLength="49" x="563.5" y="98.5684">_sender</text></g><!--MD5=[f094d7d9473c903f16cc0c1eeb9baee6]
link multiprocessing.connection.PipeConnection to deeprank_gnn.preprocess._PreProcess--><g id="link_multiprocessing.connection.PipeConnection_deeprank_gnn.preprocess._PreProcess"><path codeLine="54" d="M237.94,55.1 C258.19,63.68 280.71,74.02 300.5,85 C347.62,111.14 397.14,144.35 438.35,173.77 " fill="none" id="multiprocessing.connection.PipeConnection-to-deeprank_gnn.preprocess._PreProcess" style="stroke:#181818;stroke-width:1.0;"/><polygon fill="#181818" points="448.92,181.36,446.3815,174.6105,439.1748,174.3577,441.7133,181.1073,448.92,181.36" style="stroke:#181818;stroke-width:1.0;"/><text fill="#000000" font-family="sans-serif" font-size="13" lengthAdjust="spacing" textLength="56" x="328.5" y="98.5684">_receiver</text></g><!--MD5=[f094d7d9473c903f16cc0c1eeb9baee6]
link multiprocessing.connection.PipeConnection to deeprank_gnn.preprocess._PreProcess--><g id="link_multiprocessing.connection.PipeConnection_deeprank_gnn.preprocess._PreProcess"><path codeLine="55" d="M193.7,55.23 C205.07,70.76 221.96,90.4 241.5,102 C291,131.39 314.86,108.7 367.5,132 C392.85,143.22 418.45,158.41 441.71,174.01 " fill="none" id="multiprocessing.connection.PipeConnection-to-deeprank_gnn.preprocess._PreProcess-1" style="stroke:#181818;stroke-width:1.0;"/><polygon fill="#181818" points="452.57,181.45,449.8778,174.7603,442.6673,174.6724,445.3594,181.3621,452.57,181.45" style="stroke:#181818;stroke-width:1.0;"/><text fill="#000000" font-family="sans-serif" font-size="13" lengthAdjust="spacing" textLength="49" x="242.5" y="98.5684">_sender</text></g><!--MD5=[a4a8751524e4a7aff253e9d47bd8dc9f]
link typing.List to deeprank_gnn.preprocess._PreProcess--><g id="link_typing.List_deeprank_gnn.preprocess._PreProcess"><path codeLine="56" d="M746.47,55.25 C715.13,83.25 661,131.6 615.16,172.55 " fill="none" id="typing.List-to-deeprank_gnn.preprocess._PreProcess" style="stroke:#181818;stroke-width:1.0;"/><polygon fill="#181818" points="605.22,181.44,612.3599,180.4291,614.1729,173.4496,607.033,174.4605,605.22,181.44" style="stroke:#181818;stroke-width:1.0;"/><text fill="#000000" font-family="sans-serif" font-size="13" lengthAdjust="spacing" textLength="112" x="708.5" y="98.5684">_feature_modules</text></g><!--MD5=[d72bd101c4319a7fdcd6e84baff34c00]
@startuml deeprank_gnn.preprocess._PreProcess
set namespaceSeparator none
class "deeprank_gnn.preprocess._PreProcess" as deeprank_gnn.preprocess._PreProcess {
  daemon : bool
  output_path
  is_running() -> bool
  run()
  stop()
}
class "multiprocessing.connection.Connection" as multiprocessing.connection.Connection {
}
class "multiprocessing.connection.PipeConnection" as multiprocessing.connection.PipeConnection {
}
class "multiprocessing.connection._ConnectionBase" as multiprocessing.connection._ConnectionBase {
  closed
  readable
  writable
  close()
  fileno()
  poll(timeout)
  recv()
  recv_bytes(maxlength)
  recv_bytes_into(buf, offset)
  send(obj)
  send_bytes(buf, offset, size)
}
class "multiprocessing.context.Process" as multiprocessing.context.Process {
  daemon : bool
}
class "multiprocessing.process.BaseProcess" as multiprocessing.process.BaseProcess {
  authkey
  daemon
  daemon : NoneType
  exitcode
  ident
  name
  pid
  sentinel
  close()
  is_alive()
  join(timeout)
  kill()
  run()
  start()
  terminate()
}
class "typing.List" as typing.List {
}
deeprank_gnn.preprocess._PreProcess - -|> multiprocessing.context.Process
multiprocessing.connection.Connection - -|> multiprocessing.connection._ConnectionBase
multiprocessing.connection.PipeConnection - -|> multiprocessing.connection._ConnectionBase
multiprocessing.context.Process - -|> multiprocessing.process.BaseProcess
multiprocessing.connection.Connection - -* deeprank_gnn.preprocess._PreProcess : _receiver
multiprocessing.connection.Connection - -* deeprank_gnn.preprocess._PreProcess : _sender
multiprocessing.connection.PipeConnection - -* deeprank_gnn.preprocess._PreProcess : _receiver
multiprocessing.connection.PipeConnection - -* deeprank_gnn.preprocess._PreProcess : _sender
typing.List - -* deeprank_gnn.preprocess._PreProcess : _feature_modules
@enduml

PlantUML version 1.2022.5(Sat Apr 30 12:55:52 CEST 2022)
(GPL source distribution)
Java Runtime: OpenJDK Runtime Environment
JVM: OpenJDK 64-Bit Server VM
Default Encoding: UTF-8
Language: en
Country: NL
--></g></svg>