<?xml version="1.0" encoding="UTF-8" standalone="no"?><svg xmlns="http://www.w3.org/2000/svg" xmlns:xlink="http://www.w3.org/1999/xlink" contentStyleType="text/css" height="569px" preserveAspectRatio="none" style="width:410px;height:569px;background:#FFFFFF;" version="1.1" viewBox="0 0 410 569" width="410px" zoomAndPan="magnify"><defs/><g><!--MD5=[cc10542696c7c089554438e0321fd1fc]
class abc.ABC--><g id="elem_abc.ABC"><rect codeLine="2" fill="#F1F1F1" height="48" id="abc.ABC" rx="2.5" ry="2.5" style="stroke:#181818;stroke-width:0.5;" width="88" x="34" y="498.5"/><ellipse cx="49" cy="514.5" fill="#ADD1B2" rx="11" ry="11" style="stroke:#181818;stroke-width:1.0;"/><path d="M51.4731,520.6431 Q50.8921,520.9419 50.2529,521.0913 Q49.6138,521.2407 48.9082,521.2407 Q46.4014,521.2407 45.0815,519.5889 Q43.7617,517.937 43.7617,514.8159 Q43.7617,511.6865 45.0815,510.0347 Q46.4014,508.3828 48.9082,508.3828 Q49.6138,508.3828 50.2612,508.5322 Q50.9087,508.6816 51.4731,508.9805 L51.4731,511.7031 Q50.8423,511.1221 50.2488,510.8523 Q49.6553,510.5825 49.0244,510.5825 Q47.6797,510.5825 46.9949,511.6492 Q46.3101,512.7158 46.3101,514.8159 Q46.3101,516.9077 46.9949,517.9744 Q47.6797,519.041 49.0244,519.041 Q49.6553,519.041 50.2488,518.7712 Q50.8423,518.5015 51.4731,517.9204 Z " fill="#000000"/><text fill="#000000" font-family="sans-serif" font-size="14" lengthAdjust="spacing" textLength="56" x="63" y="519.791">abc.ABC</text><line style="stroke:#181818;stroke-width:0.5;" x1="35" x2="121" y1="530.5" y2="530.5"/><line style="stroke:#181818;stroke-width:0.5;" x1="35" x2="121" y1="538.5" y2="538.5"/></g><!--MD5=[b66b7555806aea7ea8744a458052c3f1]
class deeprank_gnn.models.contact.AtomicContact--><g id="elem_deeprank_gnn.models.contact.AtomicContact"><rect codeLine="4" fill="#F1F1F1" height="80.9766" id="deeprank_gnn.models.contact.AtomicContact" rx="2.5" ry="2.5" style="stroke:#181818;stroke-width:0.5;" width="344" x="7" y="231"/><ellipse cx="22" cy="247" fill="#ADD1B2" rx="11" ry="11" style="stroke:#181818;stroke-width:1.0;"/><path d="M24.4731,253.1431 Q23.8921,253.4419 23.2529,253.5913 Q22.6138,253.7407 21.9082,253.7407 Q19.4014,253.7407 18.0815,252.0889 Q16.7617,250.437 16.7617,247.3159 Q16.7617,244.1865 18.0815,242.5347 Q19.4014,240.8828 21.9082,240.8828 Q22.6138,240.8828 23.2612,241.0322 Q23.9087,241.1816 24.4731,241.4805 L24.4731,244.2031 Q23.8423,243.6221 23.2488,243.3523 Q22.6553,243.0825 22.0244,243.0825 Q20.6797,243.0825 19.9949,244.1492 Q19.3101,245.2158 19.3101,247.3159 Q19.3101,249.4077 19.9949,250.4744 Q20.6797,251.541 22.0244,251.541 Q22.6553,251.541 23.2488,251.2712 Q23.8423,251.0015 24.4731,250.4204 Z " fill="#000000"/><text fill="#000000" font-family="sans-serif" font-size="14" lengthAdjust="spacing" textLength="312" x="36" y="252.291">deeprank_gnn.models.contact.AtomicContact</text><line style="stroke:#181818;stroke-width:0.5;" x1="8" x2="350" y1="263" y2="263"/><text fill="#000000" font-family="sans-serif" font-size="14" lengthAdjust="spacing" textLength="44" x="13" y="280.5352">atom1</text><text fill="#000000" font-family="sans-serif" font-size="14" lengthAdjust="spacing" textLength="44" x="13" y="297.0234">atom2</text><line style="stroke:#181818;stroke-width:0.5;" x1="8" x2="350" y1="303.9766" y2="303.9766"/></g><!--MD5=[bd646357d1e910eda9d132ebf6d929cc]
class deeprank_gnn.models.contact.Contact--><g id="elem_deeprank_gnn.models.contact.Contact"><rect codeLine="8" fill="#F1F1F1" height="48" id="deeprank_gnn.models.contact.Contact" rx="2.5" ry="2.5" style="stroke:#181818;stroke-width:0.5;" width="296" x="31" y="373"/><ellipse cx="46" cy="389" fill="#ADD1B2" rx="11" ry="11" style="stroke:#181818;stroke-width:1.0;"/><path d="M48.4731,395.1431 Q47.8921,395.4419 47.2529,395.5913 Q46.6138,395.7407 45.9082,395.7407 Q43.4014,395.7407 42.0815,394.0889 Q40.7617,392.437 40.7617,389.3159 Q40.7617,386.1865 42.0815,384.5347 Q43.4014,382.8828 45.9082,382.8828 Q46.6138,382.8828 47.2612,383.0322 Q47.9087,383.1816 48.4731,383.4805 L48.4731,386.2031 Q47.8423,385.6221 47.2488,385.3523 Q46.6553,385.0825 46.0244,385.0825 Q44.6797,385.0825 43.9949,386.1492 Q43.3101,387.2158 43.3101,389.3159 Q43.3101,391.4077 43.9949,392.4744 Q44.6797,393.541 46.0244,393.541 Q46.6553,393.541 47.2488,393.2712 Q47.8423,393.0015 48.4731,392.4204 Z " fill="#000000"/><text fill="#000000" font-family="sans-serif" font-size="14" lengthAdjust="spacing" textLength="264" x="60" y="394.291">deeprank_gnn.models.contact.Contact</text><line style="stroke:#181818;stroke-width:0.5;" x1="32" x2="326" y1="405" y2="405"/><line style="stroke:#181818;stroke-width:0.5;" x1="32" x2="326" y1="413" y2="413"/></g><!--MD5=[33157d056f101eb11c7c50e1ff919bfe]
class deeprank_gnn.models.pair.Pair--><g id="elem_deeprank_gnn.models.pair.Pair"><rect codeLine="10" fill="#F1F1F1" height="80.9766" id="deeprank_gnn.models.pair.Pair" rx="2.5" ry="2.5" style="stroke:#181818;stroke-width:0.5;" width="246" x="157" y="482"/><ellipse cx="172" cy="498" fill="#ADD1B2" rx="11" ry="11" style="stroke:#181818;stroke-width:1.0;"/><path d="M174.4731,504.1431 Q173.8921,504.4419 173.2529,504.5913 Q172.6138,504.7407 171.9082,504.7407 Q169.4014,504.7407 168.0815,503.0889 Q166.7617,501.437 166.7617,498.3159 Q166.7617,495.1865 168.0815,493.5347 Q169.4014,491.8828 171.9082,491.8828 Q172.6138,491.8828 173.2612,492.0322 Q173.9087,492.1816 174.4731,492.4805 L174.4731,495.2031 Q173.8423,494.6221 173.2488,494.3523 Q172.6553,494.0825 172.0244,494.0825 Q170.6797,494.0825 169.9949,495.1492 Q169.3101,496.2158 169.3101,498.3159 Q169.3101,500.4077 169.9949,501.4744 Q170.6797,502.541 172.0244,502.541 Q172.6553,502.541 173.2488,502.2712 Q173.8423,502.0015 174.4731,501.4204 Z " fill="#000000"/><text fill="#000000" font-family="sans-serif" font-size="14" lengthAdjust="spacing" textLength="214" x="186" y="503.291">deeprank_gnn.models.pair.Pair</text><line style="stroke:#181818;stroke-width:0.5;" x1="158" x2="402" y1="514" y2="514"/><text fill="#000000" font-family="sans-serif" font-size="14" lengthAdjust="spacing" textLength="39" x="163" y="531.5352">item1</text><text fill="#000000" font-family="sans-serif" font-size="14" lengthAdjust="spacing" textLength="39" x="163" y="548.0234">item2</text><line style="stroke:#181818;stroke-width:0.5;" x1="158" x2="402" y1="554.9766" y2="554.9766"/></g><!--MD5=[603ce646e2f6e4bd45b8070de2c4807f]
class deeprank_gnn.models.structure.Atom--><g id="elem_deeprank_gnn.models.structure.Atom"><rect codeLine="14" fill="#F1F1F1" height="146.9297" id="deeprank_gnn.models.structure.Atom" rx="2.5" ry="2.5" style="stroke:#181818;stroke-width:0.5;" width="292" x="33" y="7"/><ellipse cx="48" cy="23" fill="#ADD1B2" rx="11" ry="11" style="stroke:#181818;stroke-width:1.0;"/><path d="M50.4731,29.1431 Q49.8921,29.4419 49.2529,29.5913 Q48.6138,29.7407 47.9082,29.7407 Q45.4014,29.7407 44.0815,28.0889 Q42.7617,26.437 42.7617,23.3159 Q42.7617,20.1865 44.0815,18.5347 Q45.4014,16.8828 47.9082,16.8828 Q48.6138,16.8828 49.2612,17.0322 Q49.9087,17.1816 50.4731,17.4805 L50.4731,20.2031 Q49.8423,19.6221 49.2488,19.3523 Q48.6553,19.0825 48.0244,19.0825 Q46.6797,19.0825 45.9949,20.1492 Q45.3101,21.2158 45.3101,23.3159 Q45.3101,25.4077 45.9949,26.4744 Q46.6797,27.541 48.0244,27.541 Q48.6553,27.541 49.2488,27.2712 Q49.8423,27.0015 50.4731,26.4204 Z " fill="#000000"/><text fill="#000000" font-family="sans-serif" font-size="14" lengthAdjust="spacing" textLength="260" x="62" y="28.291">deeprank_gnn.models.structure.Atom</text><line style="stroke:#181818;stroke-width:0.5;" x1="34" x2="324" y1="39" y2="39"/><text fill="#000000" font-family="sans-serif" font-size="14" lengthAdjust="spacing" textLength="55" x="39" y="56.5352">element</text><text fill="#000000" font-family="sans-serif" font-size="14" lengthAdjust="spacing" textLength="38" x="39" y="73.0234">name</text><text fill="#000000" font-family="sans-serif" font-size="14" lengthAdjust="spacing" textLength="72" x="39" y="89.5117">occupancy</text><text fill="#000000" font-family="sans-serif" font-size="14" lengthAdjust="spacing" textLength="56" x="39" y="106">position</text><text fill="#000000" font-family="sans-serif" font-size="14" lengthAdjust="spacing" textLength="51" x="39" y="122.4883">residue</text><line style="stroke:#181818;stroke-width:0.5;" x1="34" x2="324" y1="129.4414" y2="129.4414"/><text fill="#000000" font-family="sans-serif" font-size="14" lengthAdjust="spacing" textLength="218" x="39" y="146.9766">change_altloc(alternative_atom)</text></g><!--MD5=[b9d2395907cebf65a77c4839f03b534d]
link deeprank_gnn.models.contact.AtomicContact to deeprank_gnn.models.contact.Contact--><g id="link_deeprank_gnn.models.contact.AtomicContact_deeprank_gnn.models.contact.Contact"><path codeLine="22" d="M179,312.26 C179,325.09 179,339.37 179,352.46 " fill="none" id="deeprank_gnn.models.contact.AtomicContact-to-deeprank_gnn.models.contact.Contact" style="stroke:#181818;stroke-width:1.0;"/><polygon fill="none" points="186,352.88,179,372.88,172,352.88,186,352.88" style="stroke:#181818;stroke-width:1.0;"/></g><!--MD5=[6ddd8e9b358dcee6a3e9f0bd0eb741ee]
link deeprank_gnn.models.contact.Contact to abc.ABC--><g id="link_deeprank_gnn.models.contact.Contact_abc.ABC"><path codeLine="23" d="M160,421.23 C145.82,438.57 126.13,462.65 109.6,482.86 " fill="none" id="deeprank_gnn.models.contact.Contact-to-abc.ABC" style="stroke:#181818;stroke-width:1.0;"/><polygon fill="none" points="114.99,487.32,96.91,498.37,104.15,478.46,114.99,487.32" style="stroke:#181818;stroke-width:1.0;"/></g><!--MD5=[0600daae467c47a6d2833bcc335051cb]
link deeprank_gnn.models.contact.Contact to deeprank_gnn.models.pair.Pair--><g id="link_deeprank_gnn.models.contact.Contact_deeprank_gnn.models.pair.Pair"><path codeLine="24" d="M198,421.23 C208.45,434.02 221.91,450.47 234.89,466.34 " fill="none" id="deeprank_gnn.models.contact.Contact-to-deeprank_gnn.models.pair.Pair" style="stroke:#181818;stroke-width:1.0;"/><polygon fill="none" points="240.34,461.94,247.58,481.86,229.5,470.81,240.34,461.94" style="stroke:#181818;stroke-width:1.0;"/></g><!--MD5=[dcdc70670b708d19b97556b3e95db40e]
link deeprank_gnn.models.structure.Atom to deeprank_gnn.models.contact.AtomicContact--><g id="link_deeprank_gnn.models.structure.Atom_deeprank_gnn.models.contact.AtomicContact"><path codeLine="25" d="M133.77,154.17 C128.96,169.49 127.3,185.65 132,201 C133.87,207.12 136.49,213.19 139.54,219.04 " fill="none" id="deeprank_gnn.models.structure.Atom-to-deeprank_gnn.models.contact.AtomicContact" style="stroke:#181818;stroke-width:1.0;"/><polygon fill="#181818" points="146.3,230.69,146.7461,223.4927,140.2741,220.3127,139.8279,227.51,146.3,230.69" style="stroke:#181818;stroke-width:1.0;"/><text fill="#000000" font-family="sans-serif" font-size="13" lengthAdjust="spacing" textLength="47" x="133" y="197.5684">_atom1</text></g><!--MD5=[dcdc70670b708d19b97556b3e95db40e]
link deeprank_gnn.models.structure.Atom to deeprank_gnn.models.contact.AtomicContact--><g id="link_deeprank_gnn.models.structure.Atom_deeprank_gnn.models.contact.AtomicContact"><path codeLine="26" d="M184.82,154.17 C185.45,169.62 185.65,185.85 185,201 C184.77,206.44 184.43,212.12 184.03,217.78 " fill="none" id="deeprank_gnn.models.structure.Atom-to-deeprank_gnn.models.contact.AtomicContact-1" style="stroke:#181818;stroke-width:1.0;"/><polygon fill="#181818" points="183.02,230.84,187.476,225.1705,183.9565,218.8766,179.5004,224.5461,183.02,230.84" style="stroke:#181818;stroke-width:1.0;"/><text fill="#000000" font-family="sans-serif" font-size="13" lengthAdjust="spacing" textLength="47" x="186" y="197.5684">_atom2</text></g><!--MD5=[ea318e8b73bcce41dd5546b182fe7b19]
@startuml deeprank_gnn.models.contact.AtomicContact
set namespaceSeparator none
class "abc.ABC" as abc.ABC {
}
class "deeprank_gnn.models.contact.AtomicContact" as deeprank_gnn.models.contact.AtomicContact {
  atom1
  atom2
}
class "deeprank_gnn.models.contact.Contact" as deeprank_gnn.models.contact.Contact {
}
class "deeprank_gnn.models.pair.Pair" as deeprank_gnn.models.pair.Pair {
  item1
  item2
}
class "deeprank_gnn.models.structure.Atom" as deeprank_gnn.models.structure.Atom {
  element
  name
  occupancy
  position
  residue
  change_altloc(alternative_atom)
}
deeprank_gnn.models.contact.AtomicContact - -|> deeprank_gnn.models.contact.Contact
deeprank_gnn.models.contact.Contact - -|> abc.ABC
deeprank_gnn.models.contact.Contact - -|> deeprank_gnn.models.pair.Pair
deeprank_gnn.models.structure.Atom - -* deeprank_gnn.models.contact.AtomicContact : _atom1
deeprank_gnn.models.structure.Atom - -* deeprank_gnn.models.contact.AtomicContact : _atom2
@enduml

PlantUML version 1.2022.5(Sat Apr 30 12:55:52 CEST 2022)
(GPL source distribution)
Java Runtime: OpenJDK Runtime Environment
JVM: OpenJDK 64-Bit Server VM
Default Encoding: UTF-8
Language: en
Country: NL
--></g></svg>