<?xml version="1.0" encoding="UTF-8" standalone="no"?><svg xmlns="http://www.w3.org/2000/svg" xmlns:xlink="http://www.w3.org/1999/xlink" contentStyleType="text/css" height="318px" preserveAspectRatio="none" style="width:926px;height:318px;background:#FFFFFF;" version="1.1" viewBox="0 0 926 318" width="926px" zoomAndPan="magnify"><defs/><g><!--MD5=[8a955e3063e5c8a60b2562b3a14b431f]
class deeprank_gnn.models.graph.NodeType.ATOM--><g id="elem_deeprank_gnn.models.graph.NodeType.ATOM"><rect codeLine="2" fill="#F1F1F1" height="80.9766" id="deeprank_gnn.models.graph.NodeType.ATOM" rx="2.5" ry="2.5" style="stroke:#181818;stroke-width:0.5;" width="276" x="302" y="7"/><ellipse cx="317" cy="23" fill="#ADD1B2" rx="11" ry="11" style="stroke:#181818;stroke-width:1.0;"/><path d="M319.4731,29.1431 Q318.8921,29.4419 318.2529,29.5913 Q317.6138,29.7407 316.9082,29.7407 Q314.4014,29.7407 313.0815,28.0889 Q311.7617,26.437 311.7617,23.3159 Q311.7617,20.1865 313.0815,18.5347 Q314.4014,16.8828 316.9082,16.8828 Q317.6138,16.8828 318.2612,17.0322 Q318.9087,17.1816 319.4731,17.4805 L319.4731,20.2031 Q318.8423,19.6221 318.2488,19.3523 Q317.6553,19.0825 317.0244,19.0825 Q315.6797,19.0825 314.9949,20.1492 Q314.3101,21.2158 314.3101,23.3159 Q314.3101,25.4077 314.9949,26.4744 Q315.6797,27.541 317.0244,27.541 Q317.6553,27.541 318.2488,27.2712 Q318.8423,27.0015 319.4731,26.4204 Z " fill="#000000"/><text fill="#000000" font-family="sans-serif" font-size="14" lengthAdjust="spacing" textLength="244" x="331" y="28.291">deeprank_gnn.models.graph.ATOM</text><line style="stroke:#181818;stroke-width:0.5;" x1="303" x2="577" y1="39" y2="39"/><text fill="#000000" font-family="sans-serif" font-size="14" lengthAdjust="spacing" textLength="38" x="308" y="56.5352">name</text><text fill="#000000" font-family="sans-serif" font-size="14" lengthAdjust="spacing" textLength="36" x="308" y="73.0234">value</text><line style="stroke:#181818;stroke-width:0.5;" x1="303" x2="577" y1="79.9766" y2="79.9766"/></g><!--MD5=[c093f52ed8e8a01e53ed062a1bce0ac9]
class deeprank_gnn.models.graph.Node--><g id="elem_deeprank_gnn.models.graph.Node"><rect codeLine="6" fill="#F1F1F1" height="146.9297" id="deeprank_gnn.models.graph.Node" rx="2.5" ry="2.5" style="stroke:#181818;stroke-width:0.5;" width="690" x="7" y="165"/><ellipse cx="228.75" cy="181" fill="#ADD1B2" rx="11" ry="11" style="stroke:#181818;stroke-width:1.0;"/><path d="M231.2231,187.1431 Q230.6421,187.4419 230.0029,187.5913 Q229.3638,187.7407 228.6582,187.7407 Q226.1514,187.7407 224.8315,186.0889 Q223.5117,184.437 223.5117,181.3159 Q223.5117,178.1865 224.8315,176.5347 Q226.1514,174.8828 228.6582,174.8828 Q229.3638,174.8828 230.0112,175.0322 Q230.6587,175.1816 231.2231,175.4805 L231.2231,178.2031 Q230.5923,177.6221 229.9988,177.3523 Q229.4053,177.0825 228.7744,177.0825 Q227.4297,177.0825 226.7449,178.1492 Q226.0601,179.2158 226.0601,181.3159 Q226.0601,183.4077 226.7449,184.4744 Q227.4297,185.541 228.7744,185.541 Q229.4053,185.541 229.9988,185.2712 Q230.5923,185.0015 231.2231,184.4204 Z " fill="#000000"/><text fill="#000000" font-family="sans-serif" font-size="14" lengthAdjust="spacing" textLength="238" x="249.25" y="186.291">deeprank_gnn.models.graph.Node</text><line style="stroke:#181818;stroke-width:0.5;" x1="8" x2="696" y1="197" y2="197"/><text fill="#000000" font-family="sans-serif" font-size="14" lengthAdjust="spacing" textLength="93" x="13" y="214.5352">features : dict</text><text fill="#000000" font-family="sans-serif" font-size="14" lengthAdjust="spacing" textLength="175" x="13" y="231.0234">id : Union[Atom, Residue]</text><text fill="#000000" font-family="sans-serif" font-size="14" lengthAdjust="spacing" textLength="56" x="13" y="247.5117">position</text><text fill="#000000" font-family="sans-serif" font-size="14" lengthAdjust="spacing" textLength="29" x="13" y="264">type</text><line style="stroke:#181818;stroke-width:0.5;" x1="8" x2="696" y1="270.9531" y2="270.9531"/><text fill="#000000" font-family="sans-serif" font-size="14" lengthAdjust="spacing" textLength="678" x="13" y="288.4883">add_feature(feature_name: str, feature_function: Callable[[Union[Atom, Residue]], numpy.ndarray])</text><text fill="#000000" font-family="sans-serif" font-size="14" lengthAdjust="spacing" textLength="125" x="13" y="304.9766">has_nan() -&gt; bool</text></g><!--MD5=[4f89d6d34c124666d47445a2bcf4e4d3]
class deeprank_gnn.models.graph.NodeType.RESIDUE--><g id="elem_deeprank_gnn.models.graph.NodeType.RESIDUE"><rect codeLine="14" fill="#F1F1F1" height="80.9766" id="deeprank_gnn.models.graph.NodeType.RESIDUE" rx="2.5" ry="2.5" style="stroke:#181818;stroke-width:0.5;" width="291" x="628.5" y="7"/><ellipse cx="643.5" cy="23" fill="#ADD1B2" rx="11" ry="11" style="stroke:#181818;stroke-width:1.0;"/><path d="M645.9731,29.1431 Q645.3921,29.4419 644.7529,29.5913 Q644.1138,29.7407 643.4082,29.7407 Q640.9014,29.7407 639.5815,28.0889 Q638.2617,26.437 638.2617,23.3159 Q638.2617,20.1865 639.5815,18.5347 Q640.9014,16.8828 643.4082,16.8828 Q644.1138,16.8828 644.7612,17.0322 Q645.4087,17.1816 645.9731,17.4805 L645.9731,20.2031 Q645.3423,19.6221 644.7488,19.3523 Q644.1553,19.0825 643.5244,19.0825 Q642.1797,19.0825 641.4949,20.1492 Q640.8101,21.2158 640.8101,23.3159 Q640.8101,25.4077 641.4949,26.4744 Q642.1797,27.541 643.5244,27.541 Q644.1553,27.541 644.7488,27.2712 Q645.3423,27.0015 645.9731,26.4204 Z " fill="#000000"/><text fill="#000000" font-family="sans-serif" font-size="14" lengthAdjust="spacing" textLength="259" x="657.5" y="28.291">deeprank_gnn.models.graph.RESIDUE</text><line style="stroke:#181818;stroke-width:0.5;" x1="629.5" x2="918.5" y1="39" y2="39"/><text fill="#000000" font-family="sans-serif" font-size="14" lengthAdjust="spacing" textLength="38" x="634.5" y="56.5352">name</text><text fill="#000000" font-family="sans-serif" font-size="14" lengthAdjust="spacing" textLength="36" x="634.5" y="73.0234">value</text><line style="stroke:#181818;stroke-width:0.5;" x1="629.5" x2="918.5" y1="79.9766" y2="79.9766"/></g><!--MD5=[6785f8f1c234c20014d167197813183b]
class enum.Enum--><g id="elem_enum.Enum"><rect codeLine="18" fill="#F1F1F1" height="80.9766" id="enum.Enum" rx="2.5" ry="2.5" style="stroke:#181818;stroke-width:0.5;" width="114" x="732" y="198"/><ellipse cx="747" cy="214" fill="#ADD1B2" rx="11" ry="11" style="stroke:#181818;stroke-width:1.0;"/><path d="M749.4731,220.1431 Q748.8921,220.4419 748.2529,220.5913 Q747.6138,220.7407 746.9082,220.7407 Q744.4014,220.7407 743.0815,219.0889 Q741.7617,217.437 741.7617,214.3159 Q741.7617,211.1865 743.0815,209.5347 Q744.4014,207.8828 746.9082,207.8828 Q747.6138,207.8828 748.2612,208.0322 Q748.9087,208.1816 749.4731,208.4805 L749.4731,211.2031 Q748.8423,210.6221 748.2488,210.3523 Q747.6553,210.0825 747.0244,210.0825 Q745.6797,210.0825 744.9949,211.1492 Q744.3101,212.2158 744.3101,214.3159 Q744.3101,216.4077 744.9949,217.4744 Q745.6797,218.541 747.0244,218.541 Q747.6553,218.541 748.2488,218.2712 Q748.8423,218.0015 749.4731,217.4204 Z " fill="#000000"/><text fill="#000000" font-family="sans-serif" font-size="14" lengthAdjust="spacing" textLength="82" x="761" y="219.291">enum.Enum</text><line style="stroke:#181818;stroke-width:0.5;" x1="733" x2="845" y1="230" y2="230"/><line style="stroke:#181818;stroke-width:0.5;" x1="733" x2="845" y1="238" y2="238"/><text fill="#000000" font-family="sans-serif" font-size="14" lengthAdjust="spacing" textLength="48" x="738" y="255.5352">name()</text><text fill="#000000" font-family="sans-serif" font-size="14" lengthAdjust="spacing" textLength="46" x="738" y="272.0234">value()</text></g><!--MD5=[6645f4d9ab7dedfa48dc7f7acf3359a4]
link deeprank_gnn.models.graph.NodeType.ATOM to enum.Enum--><g id="link_deeprank_gnn.models.graph.NodeType.ATOM_enum.Enum"><path codeLine="22" d="M523.99,88.01 C557.36,103.27 596.25,120.51 632,135 C668.35,149.73 681.79,144.13 715,165 C723.72,170.48 732.25,177.14 740.23,184.17 " fill="none" id="deeprank_gnn.models.graph.NodeType.ATOM-to-enum.Enum" style="stroke:#181818;stroke-width:1.0;"/><polygon fill="none" points="745.08,179.13,754.8,197.95,735.46,189.3,745.08,179.13" style="stroke:#181818;stroke-width:1.0;"/></g><!--MD5=[8f0e18335e644e9689c116cc3edad547]
link deeprank_gnn.models.graph.NodeType.RESIDUE to enum.Enum--><g id="link_deeprank_gnn.models.graph.NodeType.RESIDUE_enum.Enum"><path codeLine="23" d="M777.14,88.12 C779.2,114.08 781.94,148.49 784.26,177.74 " fill="none" id="deeprank_gnn.models.graph.NodeType.RESIDUE-to-enum.Enum" style="stroke:#181818;stroke-width:1.0;"/><polygon fill="none" points="791.26,177.44,785.86,197.93,777.3,178.55,791.26,177.44" style="stroke:#181818;stroke-width:1.0;"/></g><!--MD5=[f34bd9b5df3e3e505e47b7f84af1af29]
link deeprank_gnn.models.graph.NodeType.ATOM to deeprank_gnn.models.graph.Node--><g id="link_deeprank_gnn.models.graph.NodeType.ATOM_deeprank_gnn.models.graph.Node"><path codeLine="24" d="M421.55,88.12 C412.79,106.93 401.97,130.18 391.49,152.69 " fill="none" id="deeprank_gnn.models.graph.NodeType.ATOM-to-deeprank_gnn.models.graph.Node" style="stroke:#181818;stroke-width:1.0;"/><polygon fill="#181818" points="385.89,164.72,392.052,160.9744,390.9646,153.8458,384.8026,157.5914,385.89,164.72" style="stroke:#181818;stroke-width:1.0;"/><text fill="#000000" font-family="sans-serif" font-size="13" lengthAdjust="spacing" textLength="34" x="408" y="131.5684">_type</text></g><!--MD5=[29fed52173f7d4560bdf98f2046c716d]
link deeprank_gnn.models.graph.NodeType.RESIDUE to deeprank_gnn.models.graph.Node--><g id="link_deeprank_gnn.models.graph.NodeType.RESIDUE_deeprank_gnn.models.graph.Node"><path codeLine="25" d="M685.79,88.01 C639.53,108.72 581.2,134.85 526.28,159.44 " fill="none" id="deeprank_gnn.models.graph.NodeType.RESIDUE-to-deeprank_gnn.models.graph.Node" style="stroke:#181818;stroke-width:1.0;"/><polygon fill="#181818" points="514.26,164.83,521.3707,166.0294,525.2127,159.927,518.102,158.7276,514.26,164.83" style="stroke:#181818;stroke-width:1.0;"/><text fill="#000000" font-family="sans-serif" font-size="13" lengthAdjust="spacing" textLength="34" x="615" y="131.5684">_type</text></g><!--MD5=[087990a7bb2a45ec8cae4db8883281d5]
@startuml deeprank_gnn.models.graph.Node
set namespaceSeparator none
class "deeprank_gnn.models.graph.ATOM" as deeprank_gnn.models.graph.NodeType.ATOM {
  name
  value
}
class "deeprank_gnn.models.graph.Node" as deeprank_gnn.models.graph.Node {
  features : dict
  id : Union[Atom, Residue]
  position
  type
  add_feature(feature_name: str, feature_function: Callable[[Union[Atom, Residue]], numpy.ndarray])
  has_nan() -> bool
}
class "deeprank_gnn.models.graph.RESIDUE" as deeprank_gnn.models.graph.NodeType.RESIDUE {
  name
  value
}
class "enum.Enum" as enum.Enum {
  name()
  value()
}
deeprank_gnn.models.graph.NodeType.ATOM - -|> enum.Enum
deeprank_gnn.models.graph.NodeType.RESIDUE - -|> enum.Enum
deeprank_gnn.models.graph.NodeType.ATOM - -* deeprank_gnn.models.graph.Node : _type
deeprank_gnn.models.graph.NodeType.RESIDUE - -* deeprank_gnn.models.graph.Node : _type
@enduml

PlantUML version 1.2022.5(Sat Apr 30 12:55:52 CEST 2022)
(GPL source distribution)
Java Runtime: OpenJDK Runtime Environment
JVM: OpenJDK 64-Bit Server VM
Default Encoding: UTF-8
Language: en
Country: NL
--></g></svg>