<?xml version="1.0" encoding="UTF-8" standalone="no"?><svg xmlns="http://www.w3.org/2000/svg" xmlns:xlink="http://www.w3.org/1999/xlink" contentStyleType="text/css" height="401px" preserveAspectRatio="none" style="width:704px;height:401px;background:#FFFFFF;" version="1.1" viewBox="0 0 704 401" width="704px" zoomAndPan="magnify"><defs/><g><!--MD5=[b69affa0b0ab751fb6ffea2d9baf1dfe]
class deeprank_gnn.models.amino_acid.AminoAcid--><g id="elem_deeprank_gnn.models.amino_acid.AminoAcid"><rect codeLine="2" fill="#F1F1F1" height="212.8828" id="deeprank_gnn.models.amino_acid.AminoAcid" rx="2.5" ry="2.5" style="stroke:#181818;stroke-width:0.5;" width="346" x="7" y="7"/><ellipse cx="22" cy="23" fill="#ADD1B2" rx="11" ry="11" style="stroke:#181818;stroke-width:1.0;"/><path d="M24.4731,29.1431 Q23.8921,29.4419 23.2529,29.5913 Q22.6138,29.7407 21.9082,29.7407 Q19.4014,29.7407 18.0815,28.0889 Q16.7617,26.437 16.7617,23.3159 Q16.7617,20.1865 18.0815,18.5347 Q19.4014,16.8828 21.9082,16.8828 Q22.6138,16.8828 23.2612,17.0322 Q23.9087,17.1816 24.4731,17.4805 L24.4731,20.2031 Q23.8423,19.6221 23.2488,19.3523 Q22.6553,19.0825 22.0244,19.0825 Q20.6797,19.0825 19.9949,20.1492 Q19.3101,21.2158 19.3101,23.3159 Q19.3101,25.4077 19.9949,26.4744 Q20.6797,27.541 22.0244,27.541 Q22.6553,27.541 23.2488,27.2712 Q23.8423,27.0015 24.4731,26.4204 Z " fill="#000000"/><text fill="#000000" font-family="sans-serif" font-size="14" lengthAdjust="spacing" textLength="314" x="36" y="28.291">deeprank_gnn.models.amino_acid.AminoAcid</text><line style="stroke:#181818;stroke-width:0.5;" x1="8" x2="352" y1="39" y2="39"/><text fill="#000000" font-family="sans-serif" font-size="14" lengthAdjust="spacing" textLength="47" x="13" y="56.5352">charge</text><text fill="#000000" font-family="sans-serif" font-size="14" lengthAdjust="spacing" textLength="228" x="13" y="73.0234">count_hydrogen_bond_acceptors</text><text fill="#000000" font-family="sans-serif" font-size="14" lengthAdjust="spacing" textLength="211" x="13" y="89.5117">count_hydrogen_bond_donors</text><text fill="#000000" font-family="sans-serif" font-size="14" lengthAdjust="spacing" textLength="39" x="13" y="106">index</text><text fill="#000000" font-family="sans-serif" font-size="14" lengthAdjust="spacing" textLength="38" x="13" y="122.4883">name</text><text fill="#000000" font-family="sans-serif" font-size="14" lengthAdjust="spacing" textLength="109" x="13" y="138.9766">one_letter_code</text><text fill="#000000" font-family="sans-serif" font-size="14" lengthAdjust="spacing" textLength="49" x="13" y="155.4648">onehot</text><text fill="#000000" font-family="sans-serif" font-size="14" lengthAdjust="spacing" textLength="52" x="13" y="171.9531">polarity</text><text fill="#000000" font-family="sans-serif" font-size="14" lengthAdjust="spacing" textLength="27" x="13" y="188.4414">size</text><text fill="#000000" font-family="sans-serif" font-size="14" lengthAdjust="spacing" textLength="119" x="13" y="204.9297">three_letter_code</text><line style="stroke:#181818;stroke-width:0.5;" x1="8" x2="352" y1="211.8828" y2="211.8828"/></g><!--MD5=[99bf234703377e72aa37ae7698933364]
class deeprank_gnn.models.structure.Residue--><g id="elem_deeprank_gnn.models.structure.Residue"><rect codeLine="14" fill="#F1F1F1" height="196.3945" id="deeprank_gnn.models.structure.Residue" rx="2.5" ry="2.5" style="stroke:#181818;stroke-width:0.5;" width="309" x="388.5" y="15.5"/><ellipse cx="403.5" cy="31.5" fill="#ADD1B2" rx="11" ry="11" style="stroke:#181818;stroke-width:1.0;"/><path d="M405.9731,37.6431 Q405.3921,37.9419 404.7529,38.0913 Q404.1138,38.2407 403.4082,38.2407 Q400.9014,38.2407 399.5815,36.5889 Q398.2617,34.937 398.2617,31.8159 Q398.2617,28.6865 399.5815,27.0347 Q400.9014,25.3828 403.4082,25.3828 Q404.1138,25.3828 404.7612,25.5322 Q405.4087,25.6816 405.9731,25.9805 L405.9731,28.7031 Q405.3423,28.1221 404.7488,27.8523 Q404.1553,27.5825 403.5244,27.5825 Q402.1797,27.5825 401.4949,28.6492 Q400.8101,29.7158 400.8101,31.8159 Q400.8101,33.9077 401.4949,34.9744 Q402.1797,36.041 403.5244,36.041 Q404.1553,36.041 404.7488,35.7712 Q405.3423,35.5015 405.9731,34.9204 Z " fill="#000000"/><text fill="#000000" font-family="sans-serif" font-size="14" lengthAdjust="spacing" textLength="277" x="417.5" y="36.791">deeprank_gnn.models.structure.Residue</text><line style="stroke:#181818;stroke-width:0.5;" x1="389.5" x2="696.5" y1="47.5" y2="47.5"/><text fill="#000000" font-family="sans-serif" font-size="14" lengthAdjust="spacing" textLength="78" x="394.5" y="65.0352">amino_acid</text><text fill="#000000" font-family="sans-serif" font-size="14" lengthAdjust="spacing" textLength="42" x="394.5" y="81.5234">atoms</text><text fill="#000000" font-family="sans-serif" font-size="14" lengthAdjust="spacing" textLength="37" x="394.5" y="98.0117">chain</text><text fill="#000000" font-family="sans-serif" font-size="14" lengthAdjust="spacing" textLength="101" x="394.5" y="114.5">insertion_code</text><text fill="#000000" font-family="sans-serif" font-size="14" lengthAdjust="spacing" textLength="54" x="394.5" y="130.9883">number</text><text fill="#000000" font-family="sans-serif" font-size="14" lengthAdjust="spacing" textLength="101" x="394.5" y="147.4766">number_string</text><text fill="#000000" font-family="sans-serif" font-size="14" lengthAdjust="spacing" textLength="56" x="394.5" y="163.9648">position</text><line style="stroke:#181818;stroke-width:0.5;" x1="389.5" x2="696.5" y1="170.918" y2="170.918"/><text fill="#000000" font-family="sans-serif" font-size="14" lengthAdjust="spacing" textLength="113" x="394.5" y="188.4531">add_atom(atom)</text><text fill="#000000" font-family="sans-serif" font-size="14" lengthAdjust="spacing" textLength="166" x="394.5" y="204.9414">get_pssm() -&gt; PssmRow</text></g><!--MD5=[cd905e280503bb0b329e3ef5c511a1ed]
class deeprank_gnn.models.variant.SingleResidueVariant--><g id="elem_deeprank_gnn.models.variant.SingleResidueVariant"><rect codeLine="25" fill="#F1F1F1" height="97.4648" id="deeprank_gnn.models.variant.SingleResidueVariant" rx="2.5" ry="2.5" style="stroke:#181818;stroke-width:0.5;" width="385" x="168.5" y="297"/><ellipse cx="183.5" cy="313" fill="#ADD1B2" rx="11" ry="11" style="stroke:#181818;stroke-width:1.0;"/><path d="M185.9731,319.1431 Q185.3921,319.4419 184.7529,319.5913 Q184.1138,319.7407 183.4082,319.7407 Q180.9014,319.7407 179.5815,318.0889 Q178.2617,316.437 178.2617,313.3159 Q178.2617,310.1865 179.5815,308.5347 Q180.9014,306.8828 183.4082,306.8828 Q184.1138,306.8828 184.7612,307.0322 Q185.4087,307.1816 185.9731,307.4805 L185.9731,310.2031 Q185.3423,309.6221 184.7488,309.3523 Q184.1553,309.0825 183.5244,309.0825 Q182.1797,309.0825 181.4949,310.1492 Q180.8101,311.2158 180.8101,313.3159 Q180.8101,315.4077 181.4949,316.4744 Q182.1797,317.541 183.5244,317.541 Q184.1553,317.541 184.7488,317.2712 Q185.3423,317.0015 185.9731,316.4204 Z " fill="#000000"/><text fill="#000000" font-family="sans-serif" font-size="14" lengthAdjust="spacing" textLength="353" x="197.5" y="318.291">deeprank_gnn.models.variant.SingleResidueVariant</text><line style="stroke:#181818;stroke-width:0.5;" x1="169.5" x2="552.5" y1="329" y2="329"/><text fill="#000000" font-family="sans-serif" font-size="14" lengthAdjust="spacing" textLength="51" x="174.5" y="346.5352">residue</text><text fill="#000000" font-family="sans-serif" font-size="14" lengthAdjust="spacing" textLength="132" x="174.5" y="363.0234">variant_amino_acid</text><text fill="#000000" font-family="sans-serif" font-size="14" lengthAdjust="spacing" textLength="142" x="174.5" y="379.5117">wildtype_amino_acid</text><line style="stroke:#181818;stroke-width:0.5;" x1="169.5" x2="552.5" y1="386.4648" y2="386.4648"/></g><!--MD5=[9b27e5a2ae93965371cb84b77b26c3c0]
link deeprank_gnn.models.amino_acid.AminoAcid to deeprank_gnn.models.variant.SingleResidueVariant--><g id="link_deeprank_gnn.models.amino_acid.AminoAcid_deeprank_gnn.models.variant.SingleResidueVariant"><path codeLine="30" d="M263.08,220.08 C281.13,243 299.57,266.44 315.51,286.69 " fill="none" id="deeprank_gnn.models.amino_acid.AminoAcid-to-deeprank_gnn.models.variant.SingleResidueVariant" style="stroke:#181818;stroke-width:1.0;"/><polygon fill="#181818" points="323.6,296.97,323.0357,289.781,316.1827,287.5369,316.747,294.7259,323.6,296.97" style="stroke:#181818;stroke-width:1.0;"/><text fill="#000000" font-family="sans-serif" font-size="13" lengthAdjust="spacing" textLength="129" x="299" y="263.5684">_variant_amino_acid</text></g><!--MD5=[6c03334a0f141efb7cf28b3d0c3a7540]
link deeprank_gnn.models.structure.Residue to deeprank_gnn.models.variant.SingleResidueVariant--><g id="link_deeprank_gnn.models.structure.Residue_deeprank_gnn.models.variant.SingleResidueVariant"><path codeLine="31" d="M478.95,211.9 C465.63,230.61 451.29,249.74 437,267 C431.43,273.73 425.38,280.56 419.22,287.24 " fill="none" id="deeprank_gnn.models.structure.Residue-to-deeprank_gnn.models.variant.SingleResidueVariant" style="stroke:#181818;stroke-width:1.0;"/><polygon fill="#181818" points="410.14,296.89,417.1662,295.2676,418.371,288.1578,411.3447,289.7802,410.14,296.89" style="stroke:#181818;stroke-width:1.0;"/><text fill="#000000" font-family="sans-serif" font-size="13" lengthAdjust="spacing" textLength="53" x="450" y="263.5684">_residue</text></g><!--MD5=[94a05d7e075c18fa280fbd37f57d3cd9]
@startuml deeprank_gnn.models.variant.SingleResidueVariant
set namespaceSeparator none
class "deeprank_gnn.models.amino_acid.AminoAcid" as deeprank_gnn.models.amino_acid.AminoAcid {
  charge
  count_hydrogen_bond_acceptors
  count_hydrogen_bond_donors
  index
  name
  one_letter_code
  onehot
  polarity
  size
  three_letter_code
}
class "deeprank_gnn.models.structure.Residue" as deeprank_gnn.models.structure.Residue {
  amino_acid
  atoms
  chain
  insertion_code
  number
  number_string
  position
  add_atom(atom)
  get_pssm() -> PssmRow
}
class "deeprank_gnn.models.variant.SingleResidueVariant" as deeprank_gnn.models.variant.SingleResidueVariant {
  residue
  variant_amino_acid
  wildtype_amino_acid
}
deeprank_gnn.models.amino_acid.AminoAcid - -* deeprank_gnn.models.variant.SingleResidueVariant : _variant_amino_acid
deeprank_gnn.models.structure.Residue - -* deeprank_gnn.models.variant.SingleResidueVariant : _residue
@enduml

PlantUML version 1.2022.5(Sat Apr 30 12:55:52 CEST 2022)
(GPL source distribution)
Java Runtime: OpenJDK Runtime Environment
JVM: OpenJDK 64-Bit Server VM
Default Encoding: UTF-8
Language: en
Country: NL
--></g></svg>