<?xml version="1.0" encoding="UTF-8" standalone="no"?><svg xmlns="http://www.w3.org/2000/svg" xmlns:xlink="http://www.w3.org/1999/xlink" contentStyleType="text/css" height="856px" preserveAspectRatio="none" style="width:896px;height:856px;background:#FFFFFF;" version="1.1" viewBox="0 0 896 856" width="896px" zoomAndPan="magnify"><defs/><g><!--MD5=[a6e3d2a7644e6b72b3e0bbd030c389aa]
class deeprank_gnn.tools.BSA.BSA--><g id="elem_deeprank_gnn.tools.BSA.BSA"><rect codeLine="2" fill="#F1F1F1" height="229.3711" id="deeprank_gnn.tools.BSA.BSA" rx="2.5" ry="2.5" style="stroke:#181818;stroke-width:0.5;" width="236" x="236" y="165"/><ellipse cx="254.15" cy="181" fill="#ADD1B2" rx="11" ry="11" style="stroke:#181818;stroke-width:1.0;"/><path d="M256.6231,187.1431 Q256.0421,187.4419 255.4029,187.5913 Q254.7638,187.7407 254.0582,187.7407 Q251.5514,187.7407 250.2315,186.0889 Q248.9117,184.437 248.9117,181.3159 Q248.9117,178.1865 250.2315,176.5347 Q251.5514,174.8828 254.0582,174.8828 Q254.7638,174.8828 255.4112,175.0322 Q256.0587,175.1816 256.6231,175.4805 L256.6231,178.2031 Q255.9923,177.6221 255.3988,177.3523 Q254.8053,177.0825 254.1744,177.0825 Q252.8297,177.0825 252.1449,178.1492 Q251.4601,179.2158 251.4601,181.3159 Q251.4601,183.4077 252.1449,184.4744 Q252.8297,185.541 254.1744,185.541 Q254.8053,185.541 255.3988,185.2712 Q255.9923,185.0015 256.6231,184.4204 Z " fill="#000000"/><text fill="#000000" font-family="sans-serif" font-size="14" lengthAdjust="spacing" textLength="197" x="268.85" y="186.291">deeprank_gnn.tools.BSA.BSA</text><line style="stroke:#181818;stroke-width:0.5;" x1="237" x2="471" y1="197" y2="197"/><text fill="#000000" font-family="sans-serif" font-size="14" lengthAdjust="spacing" textLength="98" x="242" y="214.5352">bsa_data : dict</text><text fill="#000000" font-family="sans-serif" font-size="14" lengthAdjust="spacing" textLength="129" x="242" y="231.0234">bsa_data_xyz : dict</text><text fill="#000000" font-family="sans-serif" font-size="14" lengthAdjust="spacing" textLength="81" x="242" y="247.5117">chains : dict</text><text fill="#000000" font-family="sans-serif" font-size="14" lengthAdjust="spacing" textLength="116" x="242" y="264">chains_label : list</text><text fill="#000000" font-family="sans-serif" font-size="14" lengthAdjust="spacing" textLength="59" x="242" y="280.4883">complex</text><text fill="#000000" font-family="sans-serif" font-size="14" lengthAdjust="spacing" textLength="64" x="242" y="296.9766">pdb_data</text><text fill="#000000" font-family="sans-serif" font-size="14" lengthAdjust="spacing" textLength="127" x="242" y="313.4648">result_chains : dict</text><text fill="#000000" font-family="sans-serif" font-size="14" lengthAdjust="spacing" textLength="105" x="242" y="329.9531">result_complex</text><text fill="#000000" font-family="sans-serif" font-size="14" lengthAdjust="spacing" textLength="101" x="242" y="346.4414">sql : NoneType</text><line style="stroke:#181818;stroke-width:0.5;" x1="237" x2="471" y1="353.3945" y2="353.3945"/><text fill="#000000" font-family="sans-serif" font-size="14" lengthAdjust="spacing" textLength="224" x="242" y="370.9297">get_contact_residue_sasa(cutoff)</text><text fill="#000000" font-family="sans-serif" font-size="14" lengthAdjust="spacing" textLength="101" x="242" y="387.418">get_structure()</text></g><!--MD5=[359631bb1f4d572da8e6a6b0065d842e]
class pdb2sql.interface.interface--><g id="elem_pdb2sql.interface.interface"><rect codeLine="15" fill="#F1F1F1" height="80.9766" id="pdb2sql.interface.interface" rx="2.5" ry="2.5" style="stroke:#181818;stroke-width:0.5;" width="882" x="7" y="7"/><ellipse cx="351.75" cy="23" fill="#ADD1B2" rx="11" ry="11" style="stroke:#181818;stroke-width:1.0;"/><path d="M354.2231,29.1431 Q353.6421,29.4419 353.0029,29.5913 Q352.3638,29.7407 351.6582,29.7407 Q349.1514,29.7407 347.8315,28.0889 Q346.5117,26.437 346.5117,23.3159 Q346.5117,20.1865 347.8315,18.5347 Q349.1514,16.8828 351.6582,16.8828 Q352.3638,16.8828 353.0112,17.0322 Q353.6587,17.1816 354.2231,17.4805 L354.2231,20.2031 Q353.5923,19.6221 352.9988,19.3523 Q352.4053,19.0825 351.7744,19.0825 Q350.4297,19.0825 349.7449,20.1492 Q349.0601,21.2158 349.0601,23.3159 Q349.0601,25.4077 349.7449,26.4744 Q350.4297,27.541 351.7744,27.541 Q352.4053,27.541 352.9988,27.2712 Q353.5923,27.0015 354.2231,26.4204 Z " fill="#000000"/><text fill="#000000" font-family="sans-serif" font-size="14" lengthAdjust="spacing" textLength="184" x="372.25" y="28.291">pdb2sql.interface.interface</text><line style="stroke:#181818;stroke-width:0.5;" x1="8" x2="888" y1="39" y2="39"/><line style="stroke:#181818;stroke-width:0.5;" x1="8" x2="888" y1="47" y2="47"/><text fill="#000000" font-family="sans-serif" font-size="14" lengthAdjust="spacing" textLength="870" x="13" y="64.5352">get_contact_atoms(cutoff, allchains, chain1, chain2, extend_to_residue, only_backbone_atoms, excludeH, return_contact_pairs)</text><text fill="#000000" font-family="sans-serif" font-size="14" lengthAdjust="spacing" textLength="751" x="13" y="81.0234">get_contact_residues(cutoff, allchains, chain1, chain2, excludeH, only_backbone_atoms, return_contact_pairs)</text></g><!--MD5=[c9b2ebc687db45f38a80ef2bdeb425e1]
class pdb2sql.pdb2sql_base.pdb2sql_base--><g id="elem_pdb2sql.pdb2sql_base.pdb2sql_base"><rect codeLine="19" fill="#F1F1F1" height="394.2539" id="pdb2sql.pdb2sql_base.pdb2sql_base" rx="2.5" ry="2.5" style="stroke:#181818;stroke-width:0.5;" width="286" x="546" y="455"/><ellipse cx="561" cy="471" fill="#ADD1B2" rx="11" ry="11" style="stroke:#181818;stroke-width:1.0;"/><path d="M563.4731,477.1431 Q562.8921,477.4419 562.2529,477.5913 Q561.6138,477.7407 560.9082,477.7407 Q558.4014,477.7407 557.0815,476.0889 Q555.7617,474.437 555.7617,471.3159 Q555.7617,468.1865 557.0815,466.5347 Q558.4014,464.8828 560.9082,464.8828 Q561.6138,464.8828 562.2612,465.0322 Q562.9087,465.1816 563.4731,465.4805 L563.4731,468.2031 Q562.8423,467.6221 562.2488,467.3523 Q561.6553,467.0825 561.0244,467.0825 Q559.6797,467.0825 558.9949,468.1492 Q558.3101,469.2158 558.3101,471.3159 Q558.3101,473.4077 558.9949,474.4744 Q559.6797,475.541 561.0244,475.541 Q561.6553,475.541 562.2488,475.2712 Q562.8423,475.0015 563.4731,474.4204 Z " fill="#000000"/><text fill="#000000" font-family="sans-serif" font-size="14" lengthAdjust="spacing" textLength="254" x="575" y="476.291">pdb2sql.pdb2sql_base.pdb2sql_base</text><line style="stroke:#181818;stroke-width:0.5;" x1="547" x2="831" y1="487" y2="487"/><text fill="#000000" font-family="sans-serif" font-size="14" lengthAdjust="spacing" textLength="256" x="552" y="504.5352">SQLITE_LIMIT_VARIABLE_NUMBER : int</text><text fill="#000000" font-family="sans-serif" font-size="14" lengthAdjust="spacing" textLength="148" x="552" y="521.0234">backbone_atoms : list</text><text fill="#000000" font-family="sans-serif" font-size="14" lengthAdjust="spacing" textLength="57" x="552" y="537.5117">col : dict</text><text fill="#000000" font-family="sans-serif" font-size="14" lengthAdjust="spacing" textLength="98" x="552" y="554">delimiter : dict</text><text fill="#000000" font-family="sans-serif" font-size="14" lengthAdjust="spacing" textLength="119" x="552" y="570.4883">fix_chainID : bool</text><text fill="#000000" font-family="sans-serif" font-size="14" lengthAdjust="spacing" textLength="93" x="552" y="586.9766">is_valid : bool</text><text fill="#000000" font-family="sans-serif" font-size="14" lengthAdjust="spacing" textLength="137" x="552" y="603.4648">max_sql_values : int</text><text fill="#000000" font-family="sans-serif" font-size="14" lengthAdjust="spacing" textLength="48" x="552" y="619.9531">pdbfile</text><text fill="#000000" font-family="sans-serif" font-size="14" lengthAdjust="spacing" textLength="122" x="552" y="636.4414">sqlfile : NoneType</text><text fill="#000000" font-family="sans-serif" font-size="14" lengthAdjust="spacing" textLength="97" x="552" y="652.9297">verbose : bool</text><line style="stroke:#181818;stroke-width:0.5;" x1="547" x2="831" y1="659.8828" y2="659.8828"/><text fill="#000000" font-family="sans-serif" font-size="14" lengthAdjust="spacing" textLength="265" x="552" y="677.418">add_column(colname, coltype, default)</text><text fill="#000000" font-family="sans-serif" font-size="14" lengthAdjust="spacing" textLength="106" x="552" y="693.9063">data2pdb(data)</text><text fill="#000000" font-family="sans-serif" font-size="14" lengthAdjust="spacing" textLength="266" x="552" y="710.3945">exportpdb(fname, append, tablename)</text><text fill="#000000" font-family="sans-serif" font-size="14" lengthAdjust="spacing" textLength="90" x="552" y="726.8828">get(atnames)</text><text fill="#000000" font-family="sans-serif" font-size="14" lengthAdjust="spacing" textLength="155" x="552" y="743.3711">get_chains(tablename)</text><text fill="#000000" font-family="sans-serif" font-size="14" lengthAdjust="spacing" textLength="169" x="552" y="759.8594">get_residues(tablename)</text><text fill="#000000" font-family="sans-serif" font-size="14" lengthAdjust="spacing" textLength="135" x="552" y="776.3477">get_xyz(tablename)</text><text fill="#000000" font-family="sans-serif" font-size="14" lengthAdjust="spacing" textLength="138" x="552" y="792.8359">sql2pdb(tablename)</text><text fill="#000000" font-family="sans-serif" font-size="14" lengthAdjust="spacing" textLength="168" x="552" y="809.3242">update(attribute, values)</text><text fill="#000000" font-family="sans-serif" font-size="14" lengthAdjust="spacing" textLength="272" x="552" y="825.8125">update_column(colname, values, index)</text><text fill="#000000" font-family="sans-serif" font-size="14" lengthAdjust="spacing" textLength="193" x="552" y="842.3008">update_xyz(xyz, tablename)</text></g><!--MD5=[fd6d5afdc13a5700ddcd0cbaf0ea7809]
class pdb2sql.pdb2sqlcore.pdb2sql--><g id="elem_pdb2sql.pdb2sqlcore.pdb2sql"><rect codeLine="42" fill="#F1F1F1" height="212.8828" id="pdb2sql.pdb2sqlcore.pdb2sql" rx="2.5" ry="2.5" style="stroke:#181818;stroke-width:0.5;" width="364" x="507" y="173"/><ellipse cx="581.75" cy="189" fill="#ADD1B2" rx="11" ry="11" style="stroke:#181818;stroke-width:1.0;"/><path d="M584.2231,195.1431 Q583.6421,195.4419 583.0029,195.5913 Q582.3638,195.7407 581.6582,195.7407 Q579.1514,195.7407 577.8315,194.0889 Q576.5117,192.437 576.5117,189.3159 Q576.5117,186.1865 577.8315,184.5347 Q579.1514,182.8828 581.6582,182.8828 Q582.3638,182.8828 583.0112,183.0322 Q583.6587,183.1816 584.2231,183.4805 L584.2231,186.2031 Q583.5923,185.6221 582.9988,185.3523 Q582.4053,185.0825 581.7744,185.0825 Q580.4297,185.0825 579.7449,186.1492 Q579.0601,187.2158 579.0601,189.3159 Q579.0601,191.4077 579.7449,192.4744 Q580.4297,193.541 581.7744,193.541 Q582.4053,193.541 582.9988,193.2712 Q583.5923,193.0015 584.2231,192.4204 Z " fill="#000000"/><text fill="#000000" font-family="sans-serif" font-size="14" lengthAdjust="spacing" textLength="206" x="602.25" y="194.291">pdb2sql.pdb2sqlcore.pdb2sql</text><line style="stroke:#181818;stroke-width:0.5;" x1="508" x2="870" y1="205" y2="205"/><text fill="#000000" font-family="sans-serif" font-size="14" lengthAdjust="spacing" textLength="7" x="513" y="222.5352">c</text><text fill="#000000" font-family="sans-serif" font-size="14" lengthAdjust="spacing" textLength="34" x="513" y="239.0234">conn</text><line style="stroke:#181818;stroke-width:0.5;" x1="508" x2="870" y1="245.9766" y2="245.9766"/><text fill="#000000" font-family="sans-serif" font-size="14" lengthAdjust="spacing" textLength="333" x="513" y="263.5117">add_column(colname, coltype, value, tablename)</text><text fill="#000000" font-family="sans-serif" font-size="14" lengthAdjust="spacing" textLength="170" x="513" y="280">get(columns, tablename)</text><text fill="#000000" font-family="sans-serif" font-size="14" lengthAdjust="spacing" textLength="104" x="513" y="296.4883">get_colnames()</text><text fill="#000000" font-family="sans-serif" font-size="14" lengthAdjust="spacing" textLength="181" x="513" y="312.9766">print(columns, tablename)</text><text fill="#000000" font-family="sans-serif" font-size="14" lengthAdjust="spacing" textLength="115" x="513" y="329.4648">print_colnames()</text><text fill="#000000" font-family="sans-serif" font-size="14" lengthAdjust="spacing" textLength="123" x="513" y="345.9531">read_pdb(pdbfile)</text><text fill="#000000" font-family="sans-serif" font-size="14" lengthAdjust="spacing" textLength="247" x="513" y="362.4414">update(columns, values, tablename)</text><text fill="#000000" font-family="sans-serif" font-size="14" lengthAdjust="spacing" textLength="352" x="513" y="378.9297">update_column(colname, values, index, tablename)</text></g><!--MD5=[1ddd64546ec50ab5b1acf84744126eed]
link pdb2sql.interface.interface to pdb2sql.pdb2sqlcore.pdb2sql--><g id="link_pdb2sql.interface.interface_pdb2sql.pdb2sqlcore.pdb2sql"><path codeLine="54" d="M489.43,88.04 C510.31,107.96 536.85,133.3 563.71,158.93 " fill="none" id="pdb2sql.interface.interface-to-pdb2sql.pdb2sqlcore.pdb2sql" style="stroke:#181818;stroke-width:1.0;"/><polygon fill="none" points="568.56,153.88,578.2,172.75,558.9,164.01,568.56,153.88" style="stroke:#181818;stroke-width:1.0;"/></g><!--MD5=[e61b90630b9f4a57c235957225c3f22a]
link pdb2sql.pdb2sqlcore.pdb2sql to pdb2sql.pdb2sql_base.pdb2sql_base--><g id="link_pdb2sql.pdb2sqlcore.pdb2sql_pdb2sql.pdb2sql_base.pdb2sql_base"><path codeLine="55" d="M689,386.17 C689,401.62 689,417.97 689,434.67 " fill="none" id="pdb2sql.pdb2sqlcore.pdb2sql-to-pdb2sql.pdb2sql_base.pdb2sql_base" style="stroke:#181818;stroke-width:1.0;"/><polygon fill="none" points="696,434.79,689,454.79,682,434.79,696,434.79" style="stroke:#181818;stroke-width:1.0;"/></g><!--MD5=[b955d3cdc420c5973312b1eeaab9f0af]
link pdb2sql.interface.interface to deeprank_gnn.tools.BSA.BSA--><g id="link_pdb2sql.interface.interface_deeprank_gnn.tools.BSA.BSA"><path codeLine="56" d="M431.84,88.04 C424.38,106.3 415.05,129.12 405.48,152.54 " fill="none" id="pdb2sql.interface.interface-to-deeprank_gnn.tools.BSA.BSA" style="stroke:#181818;stroke-width:1.0;"/><polygon fill="#181818" points="400.46,164.83,406.4304,160.786,404.9938,153.7195,399.0234,157.7634,400.46,164.83" style="stroke:#181818;stroke-width:1.0;"/><text fill="#000000" font-family="sans-serif" font-size="13" lengthAdjust="spacing" textLength="19" x="418" y="131.5684">sql</text></g><!--MD5=[fb9612d3b53704c8410bce2d049e707b]
@startuml deeprank_gnn.tools.BSA.BSA
set namespaceSeparator none
class "deeprank_gnn.tools.BSA.BSA" as deeprank_gnn.tools.BSA.BSA {
  bsa_data : dict
  bsa_data_xyz : dict
  chains : dict
  chains_label : list
  complex
  pdb_data
  result_chains : dict
  result_complex
  sql : NoneType
  get_contact_residue_sasa(cutoff)
  get_structure()
}
class "pdb2sql.interface.interface" as pdb2sql.interface.interface {
  get_contact_atoms(cutoff, allchains, chain1, chain2, extend_to_residue, only_backbone_atoms, excludeH, return_contact_pairs)
  get_contact_residues(cutoff, allchains, chain1, chain2, excludeH, only_backbone_atoms, return_contact_pairs)
}
class "pdb2sql.pdb2sql_base.pdb2sql_base" as pdb2sql.pdb2sql_base.pdb2sql_base {
  SQLITE_LIMIT_VARIABLE_NUMBER : int
  backbone_atoms : list
  col : dict
  delimiter : dict
  fix_chainID : bool
  is_valid : bool
  max_sql_values : int
  pdbfile
  sqlfile : NoneType
  verbose : bool
  add_column(colname, coltype, default)
  data2pdb(data)
  exportpdb(fname, append, tablename)
  get(atnames)
  get_chains(tablename)
  get_residues(tablename)
  get_xyz(tablename)
  sql2pdb(tablename)
  update(attribute, values)
  update_column(colname, values, index)
  update_xyz(xyz, tablename)
}
class "pdb2sql.pdb2sqlcore.pdb2sql" as pdb2sql.pdb2sqlcore.pdb2sql {
  c
  conn
  add_column(colname, coltype, value, tablename)
  get(columns, tablename)
  get_colnames()
  print(columns, tablename)
  print_colnames()
  read_pdb(pdbfile)
  update(columns, values, tablename)
  update_column(colname, values, index, tablename)
}
pdb2sql.interface.interface - -|> pdb2sql.pdb2sqlcore.pdb2sql
pdb2sql.pdb2sqlcore.pdb2sql - -|> pdb2sql.pdb2sql_base.pdb2sql_base
pdb2sql.interface.interface - -* deeprank_gnn.tools.BSA.BSA : sql
@enduml

PlantUML version 1.2022.5(Sat Apr 30 12:55:52 CEST 2022)
(GPL source distribution)
Java Runtime: OpenJDK Runtime Environment
JVM: OpenJDK 64-Bit Server VM
Default Encoding: UTF-8
Language: en
Country: NL
--></g></svg>