<?xml version="1.0" encoding="UTF-8" standalone="no"?><svg xmlns="http://www.w3.org/2000/svg" xmlns:xlink="http://www.w3.org/1999/xlink" contentStyleType="text/css" height="384px" preserveAspectRatio="none" style="width:509px;height:384px;background:#FFFFFF;" version="1.1" viewBox="0 0 509 384" width="509px" zoomAndPan="magnify"><defs/><g><!--MD5=[b69affa0b0ab751fb6ffea2d9baf1dfe]
class deeprank_gnn.models.amino_acid.AminoAcid--><g id="elem_deeprank_gnn.models.amino_acid.AminoAcid"><rect codeLine="2" fill="#F1F1F1" height="212.8828" id="deeprank_gnn.models.amino_acid.AminoAcid" rx="2.5" ry="2.5" style="stroke:#181818;stroke-width:0.5;" width="346" x="7" y="165"/><ellipse cx="22" cy="181" fill="#ADD1B2" rx="11" ry="11" style="stroke:#181818;stroke-width:1.0;"/><path d="M24.4731,187.1431 Q23.8921,187.4419 23.2529,187.5913 Q22.6138,187.7407 21.9082,187.7407 Q19.4014,187.7407 18.0815,186.0889 Q16.7617,184.437 16.7617,181.3159 Q16.7617,178.1865 18.0815,176.5347 Q19.4014,174.8828 21.9082,174.8828 Q22.6138,174.8828 23.2612,175.0322 Q23.9087,175.1816 24.4731,175.4805 L24.4731,178.2031 Q23.8423,177.6221 23.2488,177.3523 Q22.6553,177.0825 22.0244,177.0825 Q20.6797,177.0825 19.9949,178.1492 Q19.3101,179.2158 19.3101,181.3159 Q19.3101,183.4077 19.9949,184.4744 Q20.6797,185.541 22.0244,185.541 Q22.6553,185.541 23.2488,185.2712 Q23.8423,185.0015 24.4731,184.4204 Z " fill="#000000"/><text fill="#000000" font-family="sans-serif" font-size="14" lengthAdjust="spacing" textLength="314" x="36" y="186.291">deeprank_gnn.models.amino_acid.AminoAcid</text><line style="stroke:#181818;stroke-width:0.5;" x1="8" x2="352" y1="197" y2="197"/><text fill="#000000" font-family="sans-serif" font-size="14" lengthAdjust="spacing" textLength="47" x="13" y="214.5352">charge</text><text fill="#000000" font-family="sans-serif" font-size="14" lengthAdjust="spacing" textLength="228" x="13" y="231.0234">count_hydrogen_bond_acceptors</text><text fill="#000000" font-family="sans-serif" font-size="14" lengthAdjust="spacing" textLength="211" x="13" y="247.5117">count_hydrogen_bond_donors</text><text fill="#000000" font-family="sans-serif" font-size="14" lengthAdjust="spacing" textLength="39" x="13" y="264">index</text><text fill="#000000" font-family="sans-serif" font-size="14" lengthAdjust="spacing" textLength="38" x="13" y="280.4883">name</text><text fill="#000000" font-family="sans-serif" font-size="14" lengthAdjust="spacing" textLength="109" x="13" y="296.9766">one_letter_code</text><text fill="#000000" font-family="sans-serif" font-size="14" lengthAdjust="spacing" textLength="49" x="13" y="313.4648">onehot</text><text fill="#000000" font-family="sans-serif" font-size="14" lengthAdjust="spacing" textLength="52" x="13" y="329.9531">polarity</text><text fill="#000000" font-family="sans-serif" font-size="14" lengthAdjust="spacing" textLength="27" x="13" y="346.4414">size</text><text fill="#000000" font-family="sans-serif" font-size="14" lengthAdjust="spacing" textLength="119" x="13" y="362.9297">three_letter_code</text><line style="stroke:#181818;stroke-width:0.5;" x1="8" x2="352" y1="369.8828" y2="369.8828"/></g><!--MD5=[7b54426c7d4af9033396c5f074d5ee1a]
class deeprank_gnn.models.polarity.Polarity--><g id="elem_deeprank_gnn.models.polarity.Polarity"><rect codeLine="14" fill="#F1F1F1" height="80.9766" id="deeprank_gnn.models.polarity.Polarity" rx="2.5" ry="2.5" style="stroke:#181818;stroke-width:0.5;" width="296" x="164" y="7"/><ellipse cx="179" cy="23" fill="#ADD1B2" rx="11" ry="11" style="stroke:#181818;stroke-width:1.0;"/><path d="M181.4731,29.1431 Q180.8921,29.4419 180.2529,29.5913 Q179.6138,29.7407 178.9082,29.7407 Q176.4014,29.7407 175.0815,28.0889 Q173.7617,26.437 173.7617,23.3159 Q173.7617,20.1865 175.0815,18.5347 Q176.4014,16.8828 178.9082,16.8828 Q179.6138,16.8828 180.2612,17.0322 Q180.9087,17.1816 181.4731,17.4805 L181.4731,20.2031 Q180.8423,19.6221 180.2488,19.3523 Q179.6553,19.0825 179.0244,19.0825 Q177.6797,19.0825 176.9949,20.1492 Q176.3101,21.2158 176.3101,23.3159 Q176.3101,25.4077 176.9949,26.4744 Q177.6797,27.541 179.0244,27.541 Q179.6553,27.541 180.2488,27.2712 Q180.8423,27.0015 181.4731,26.4204 Z " fill="#000000"/><text fill="#000000" font-family="sans-serif" font-size="14" lengthAdjust="spacing" textLength="264" x="193" y="28.291">deeprank_gnn.models.polarity.Polarity</text><line style="stroke:#181818;stroke-width:0.5;" x1="165" x2="459" y1="39" y2="39"/><text fill="#000000" font-family="sans-serif" font-size="14" lengthAdjust="spacing" textLength="38" x="170" y="56.5352">name</text><text fill="#000000" font-family="sans-serif" font-size="14" lengthAdjust="spacing" textLength="49" x="170" y="73.0234">onehot</text><line style="stroke:#181818;stroke-width:0.5;" x1="165" x2="459" y1="79.9766" y2="79.9766"/></g><!--MD5=[6785f8f1c234c20014d167197813183b]
class enum.Enum--><g id="elem_enum.Enum"><rect codeLine="18" fill="#F1F1F1" height="80.9766" id="enum.Enum" rx="2.5" ry="2.5" style="stroke:#181818;stroke-width:0.5;" width="114" x="388" y="231"/><ellipse cx="403" cy="247" fill="#ADD1B2" rx="11" ry="11" style="stroke:#181818;stroke-width:1.0;"/><path d="M405.4731,253.1431 Q404.8921,253.4419 404.2529,253.5913 Q403.6138,253.7407 402.9082,253.7407 Q400.4014,253.7407 399.0815,252.0889 Q397.7617,250.437 397.7617,247.3159 Q397.7617,244.1865 399.0815,242.5347 Q400.4014,240.8828 402.9082,240.8828 Q403.6138,240.8828 404.2612,241.0322 Q404.9087,241.1816 405.4731,241.4805 L405.4731,244.2031 Q404.8423,243.6221 404.2488,243.3523 Q403.6553,243.0825 403.0244,243.0825 Q401.6797,243.0825 400.9949,244.1492 Q400.3101,245.2158 400.3101,247.3159 Q400.3101,249.4077 400.9949,250.4744 Q401.6797,251.541 403.0244,251.541 Q403.6553,251.541 404.2488,251.2712 Q404.8423,251.0015 405.4731,250.4204 Z " fill="#000000"/><text fill="#000000" font-family="sans-serif" font-size="14" lengthAdjust="spacing" textLength="82" x="417" y="252.291">enum.Enum</text><line style="stroke:#181818;stroke-width:0.5;" x1="389" x2="501" y1="263" y2="263"/><line style="stroke:#181818;stroke-width:0.5;" x1="389" x2="501" y1="271" y2="271"/><text fill="#000000" font-family="sans-serif" font-size="14" lengthAdjust="spacing" textLength="48" x="394" y="288.5352">name()</text><text fill="#000000" font-family="sans-serif" font-size="14" lengthAdjust="spacing" textLength="46" x="394" y="305.0234">value()</text></g><!--MD5=[714ddb742fea21d6314033cc9acbc046]
link deeprank_gnn.models.polarity.Polarity to enum.Enum--><g id="link_deeprank_gnn.models.polarity.Polarity_enum.Enum"><path codeLine="22" d="M335.78,88.19 C356.66,123.04 387.29,174.17 410.8,213.41 " fill="none" id="deeprank_gnn.models.polarity.Polarity-to-enum.Enum" style="stroke:#181818;stroke-width:1.0;"/><polygon fill="none" points="416.93,210.03,421.2,230.78,404.92,217.22,416.93,210.03" style="stroke:#181818;stroke-width:1.0;"/></g><!--MD5=[4a25dcc200be5a0176f5957d8a0c96ca]
link deeprank_gnn.models.polarity.Polarity to deeprank_gnn.models.amino_acid.AminoAcid--><g id="link_deeprank_gnn.models.polarity.Polarity_deeprank_gnn.models.amino_acid.AminoAcid"><path codeLine="23" d="M288.4,88.19 C277.33,106.82 263.49,130.09 249.44,153.71 " fill="none" id="deeprank_gnn.models.polarity.Polarity-to-deeprank_gnn.models.amino_acid.AminoAcid" style="stroke:#181818;stroke-width:1.0;"/><polygon fill="#181818" points="242.76,164.94,249.2647,161.8273,248.8932,154.6257,242.3885,157.7385,242.76,164.94" style="stroke:#181818;stroke-width:1.0;"/><text fill="#000000" font-family="sans-serif" font-size="13" lengthAdjust="spacing" textLength="55" x="271" y="131.5684">_polarity</text></g><!--MD5=[892278e86a5d49e0434cfe23f8bfde97]
@startuml deeprank_gnn.models.amino_acid.AminoAcid
set namespaceSeparator none
class "deeprank_gnn.models.amino_acid.AminoAcid" as deeprank_gnn.models.amino_acid.AminoAcid {
  charge
  count_hydrogen_bond_acceptors
  count_hydrogen_bond_donors
  index
  name
  one_letter_code
  onehot
  polarity
  size
  three_letter_code
}
class "deeprank_gnn.models.polarity.Polarity" as deeprank_gnn.models.polarity.Polarity {
  name
  onehot
}
class "enum.Enum" as enum.Enum {
  name()
  value()
}
deeprank_gnn.models.polarity.Polarity - -|> enum.Enum
deeprank_gnn.models.polarity.Polarity - -* deeprank_gnn.models.amino_acid.AminoAcid : _polarity
@enduml

PlantUML version 1.2022.5(Sat Apr 30 12:55:52 CEST 2022)
(GPL source distribution)
Java Runtime: OpenJDK Runtime Environment
JVM: OpenJDK 64-Bit Server VM
Default Encoding: UTF-8
Language: en
Country: NL
--></g></svg>