<?xml version="1.0" encoding="UTF-8" standalone="no"?><svg xmlns="http://www.w3.org/2000/svg" xmlns:xlink="http://www.w3.org/1999/xlink" contentStyleType="text/css" height="417px" preserveAspectRatio="none" style="width:323px;height:417px;background:#FFFFFF;" version="1.1" viewBox="0 0 323 417" width="323px" zoomAndPan="magnify"><defs/><g><!--MD5=[8fcfa4884960d137f1695c21a9537198]
class deeprank_gnn.models.structure.Chain--><g id="elem_deeprank_gnn.models.structure.Chain"><rect codeLine="2" fill="#F1F1F1" height="130.4414" id="deeprank_gnn.models.structure.Chain" rx="2.5" ry="2.5" style="stroke:#181818;stroke-width:0.5;" width="295" x="14" y="7"/><ellipse cx="29" cy="23" fill="#ADD1B2" rx="11" ry="11" style="stroke:#181818;stroke-width:1.0;"/><path d="M31.4731,29.1431 Q30.8921,29.4419 30.2529,29.5913 Q29.6138,29.7407 28.9082,29.7407 Q26.4014,29.7407 25.0815,28.0889 Q23.7617,26.437 23.7617,23.3159 Q23.7617,20.1865 25.0815,18.5347 Q26.4014,16.8828 28.9082,16.8828 Q29.6138,16.8828 30.2612,17.0322 Q30.9087,17.1816 31.4731,17.4805 L31.4731,20.2031 Q30.8423,19.6221 30.2488,19.3523 Q29.6553,19.0825 29.0244,19.0825 Q27.6797,19.0825 26.9949,20.1492 Q26.3101,21.2158 26.3101,23.3159 Q26.3101,25.4077 26.9949,26.4744 Q27.6797,27.541 29.0244,27.541 Q29.6553,27.541 30.2488,27.2712 Q30.8423,27.0015 31.4731,26.4204 Z " fill="#000000"/><text fill="#000000" font-family="sans-serif" font-size="14" lengthAdjust="spacing" textLength="263" x="43" y="28.291">deeprank_gnn.models.structure.Chain</text><line style="stroke:#181818;stroke-width:0.5;" x1="15" x2="308" y1="39" y2="39"/><text fill="#000000" font-family="sans-serif" font-size="14" lengthAdjust="spacing" textLength="13" x="20" y="56.5352">id</text><text fill="#000000" font-family="sans-serif" font-size="14" lengthAdjust="spacing" textLength="43" x="20" y="73.0234">model</text><text fill="#000000" font-family="sans-serif" font-size="14" lengthAdjust="spacing" textLength="36" x="20" y="89.5117">pssm</text><text fill="#000000" font-family="sans-serif" font-size="14" lengthAdjust="spacing" textLength="58" x="20" y="106">residues</text><line style="stroke:#181818;stroke-width:0.5;" x1="15" x2="308" y1="112.9531" y2="112.9531"/><text fill="#000000" font-family="sans-serif" font-size="14" lengthAdjust="spacing" textLength="145" x="20" y="130.4883">add_residue(residue)</text></g><!--MD5=[99bf234703377e72aa37ae7698933364]
class deeprank_gnn.models.structure.Residue--><g id="elem_deeprank_gnn.models.structure.Residue"><rect codeLine="9" fill="#F1F1F1" height="196.3945" id="deeprank_gnn.models.structure.Residue" rx="2.5" ry="2.5" style="stroke:#181818;stroke-width:0.5;" width="309" x="7" y="214"/><ellipse cx="22" cy="230" fill="#ADD1B2" rx="11" ry="11" style="stroke:#181818;stroke-width:1.0;"/><path d="M24.4731,236.1431 Q23.8921,236.4419 23.2529,236.5913 Q22.6138,236.7407 21.9082,236.7407 Q19.4014,236.7407 18.0815,235.0889 Q16.7617,233.437 16.7617,230.3159 Q16.7617,227.1865 18.0815,225.5347 Q19.4014,223.8828 21.9082,223.8828 Q22.6138,223.8828 23.2612,224.0322 Q23.9087,224.1816 24.4731,224.4805 L24.4731,227.2031 Q23.8423,226.6221 23.2488,226.3523 Q22.6553,226.0825 22.0244,226.0825 Q20.6797,226.0825 19.9949,227.1492 Q19.3101,228.2158 19.3101,230.3159 Q19.3101,232.4077 19.9949,233.4744 Q20.6797,234.541 22.0244,234.541 Q22.6553,234.541 23.2488,234.2712 Q23.8423,234.0015 24.4731,233.4204 Z " fill="#000000"/><text fill="#000000" font-family="sans-serif" font-size="14" lengthAdjust="spacing" textLength="277" x="36" y="235.291">deeprank_gnn.models.structure.Residue</text><line style="stroke:#181818;stroke-width:0.5;" x1="8" x2="315" y1="246" y2="246"/><text fill="#000000" font-family="sans-serif" font-size="14" lengthAdjust="spacing" textLength="78" x="13" y="263.5352">amino_acid</text><text fill="#000000" font-family="sans-serif" font-size="14" lengthAdjust="spacing" textLength="42" x="13" y="280.0234">atoms</text><text fill="#000000" font-family="sans-serif" font-size="14" lengthAdjust="spacing" textLength="37" x="13" y="296.5117">chain</text><text fill="#000000" font-family="sans-serif" font-size="14" lengthAdjust="spacing" textLength="101" x="13" y="313">insertion_code</text><text fill="#000000" font-family="sans-serif" font-size="14" lengthAdjust="spacing" textLength="54" x="13" y="329.4883">number</text><text fill="#000000" font-family="sans-serif" font-size="14" lengthAdjust="spacing" textLength="101" x="13" y="345.9766">number_string</text><text fill="#000000" font-family="sans-serif" font-size="14" lengthAdjust="spacing" textLength="56" x="13" y="362.4648">position</text><line style="stroke:#181818;stroke-width:0.5;" x1="8" x2="315" y1="369.418" y2="369.418"/><text fill="#000000" font-family="sans-serif" font-size="14" lengthAdjust="spacing" textLength="113" x="13" y="386.9531">add_atom(atom)</text><text fill="#000000" font-family="sans-serif" font-size="14" lengthAdjust="spacing" textLength="166" x="13" y="403.4414">get_pssm() -&gt; PssmRow</text></g><!--MD5=[16dca1df1b98de68d09ef0bb1f13daba]
link deeprank_gnn.models.structure.Chain to deeprank_gnn.models.structure.Residue--><g id="link_deeprank_gnn.models.structure.Chain_deeprank_gnn.models.structure.Residue"><path codeLine="20" d="M161.5,137.09 C161.5,156.68 161.5,178.81 161.5,200.56 " fill="none" id="deeprank_gnn.models.structure.Chain-to-deeprank_gnn.models.structure.Residue" style="stroke:#181818;stroke-width:1.0;"/><polygon fill="#181818" points="161.5,213.66,165.5,207.66,161.5,201.66,157.5,207.66,161.5,213.66" style="stroke:#181818;stroke-width:1.0;"/><text fill="#000000" font-family="sans-serif" font-size="13" lengthAdjust="spacing" textLength="41" x="162.5" y="180.5684">_chain</text></g><!--MD5=[831c0a82ebe25006c0932b4335468cee]
@startuml deeprank_gnn.models.structure.Residue
set namespaceSeparator none
class "deeprank_gnn.models.structure.Chain" as deeprank_gnn.models.structure.Chain {
  id
  model
  pssm
  residues
  add_residue(residue)
}
class "deeprank_gnn.models.structure.Residue" as deeprank_gnn.models.structure.Residue {
  amino_acid
  atoms
  chain
  insertion_code
  number
  number_string
  position
  add_atom(atom)
  get_pssm() -> PssmRow
}
deeprank_gnn.models.structure.Chain - -* deeprank_gnn.models.structure.Residue : _chain
@enduml

PlantUML version 1.2022.5(Sat Apr 30 12:55:52 CEST 2022)
(GPL source distribution)
Java Runtime: OpenJDK Runtime Environment
JVM: OpenJDK 64-Bit Server VM
Default Encoding: UTF-8
Language: en
Country: NL
--></g></svg>